<?xml version="1.0" encoding="utf-8"?>
<!-- Generator: Adobe Illustrator 26.2.1, SVG Export Plug-In . SVG Version: 6.00 Build 0)  -->
<svg version="1.1" id="Layer_1" xmlns="http://www.w3.org/2000/svg" xmlns:xlink="http://www.w3.org/1999/xlink" x="0px" y="0px"
	 viewBox="0 0 367.5 324.6" style="enable-background:new 0 0 367.5 324.6;" xml:space="preserve">
<style type="text/css">
	.st0{fill:#58595B;}
	.st1{fill:#FFFFFF;}
</style>
<path d="M221.3,252.2c0,0,138.2-2.1,142.7-9.2c4.4-7.1,5.2-161.8-0.9-180.9C345.3,6.5,237.3-19.2,180.4,16.3
	c-8.5,5.3-55.6,108.4-53.3,125.3c2.2,16.9,14.4,50.4,14.4,50.4L221.3,252.2z"/>
<path class="st0" d="M141.5,192.1C123.7,187.3-3,247.5-3,247.5s59.4,75.6,118.3,77s173.9-63.1,185.6-74.7S141.5,192.1,141.5,192.1z"
	/>
<g>
	<path class="st1" d="M187.4,144.8c-3.4-7.3-5.4-15-6.1-22.6c-6.3-0.1-12.6-0.2-18.9-0.3c0.7,6.8,2.7,13.5,5.8,20
		c-3.4-0.5-6.9-1-10.3-1.6c-6.7-13.4-7.9-28.2-3.6-41.1c3.6-0.5,7.1-1.1,10.7-1.6c-1.8,5.2-2.8,10.8-3,16.4
		c6.4-0.3,12.7-0.5,19.1-0.8c0.3-6.4,1.6-12.7,3.8-18.7c3.6-0.6,7.2-1.1,10.8-1.7c-6.5,16.9-5.8,36.2,2,53.4
		C194.4,145.9,190.9,145.4,187.4,144.8z"/>
	<path class="st1" d="M197.3,101.4c0.8-3.3,1.8-6.5,3-9.7c3.3-0.5,6.7-1,10-1.6c-1.3,3.3-2.4,6.7-3.3,10.2
		C203.8,100.7,200.5,101,197.3,101.4z M201.9,147c-5.9-13.1-7.7-27.3-5.5-40.8c3.2-0.3,6.5-0.5,9.7-0.8c-2.4,14.3-0.6,29.3,5.5,43
		C208.3,148,205.1,147.5,201.9,147z"/>
	<path class="st1" d="M208.8,126.3c-0.3-3-0.5-6.1-0.5-9.1c6.1-0.1,12.1-0.2,18.2-0.3c-0.1,3.3,0,6.7,0.4,10
		C220.9,126.7,214.9,126.5,208.8,126.3z"/>
	<path class="st1" d="M265.9,156.7c-4.4-10.7-6.7-22-7-33.4c-6.3-0.1-12.6-0.2-18.9-0.3c0.4,10.5,2.7,20.9,6.8,30.7
		c-3.4-0.5-6.9-1-10.3-1.6c-8.9-21-9-44.5-0.4-65.4c3.6-0.5,7.1-1.1,10.7-1.6c-3.5,8.2-5.6,16.9-6.5,25.6c6.4-0.3,12.7-0.5,19.1-0.8
		c1-9.5,3.5-18.9,7.3-27.9c3.6-0.6,7.2-1.1,10.8-1.7c-10.8,24.9-11.2,52.9-1.2,77.8C272.8,157.7,269.4,157.2,265.9,156.7z"/>
	<path class="st1" d="M303,162.3c-0.9-1.5-1.9-3.7-2.6-5.6c-0.9,4-3.5,6.1-8.4,5.4c-8.3-1.4-15-8.1-17.3-17.5
		c-3.5-16.8,4.6-18.7,13.8-20.8c4.8-1.1,6-2.8,6.2-7.3c0.2-4.2-1.8-6.6-5.6-6.5c-4.3,0.2-6.6,3.9-7.1,9.4c-3,0-5.9,0-8.9,0
		c0.4-12.3,6.9-21.2,18.6-22.3c11.9-1.1,12.8,8,12.5,25c-0.1,14.1,2.5,28.2,7.6,41.4C308.9,163.2,305.9,162.7,303,162.3z
		 M295.2,131.3c-0.8,1.7-2.4,2.5-5.8,3.5c-5.2,1.5-6.6,4-5.5,9.1c1,4.5,3.3,6.9,6.3,7.2c4.9,0.6,6.7-5.2,5.7-12.8
		C295.6,136,295.3,133.7,295.2,131.3z"/>
	<path class="st1" d="M328.9,120.4c3,0,5.9,0,8.9,0c-0.2,7.1,0.2,14.2,1.1,21.2c2.1,15.8,3.2,28.3-7.2,26.6
		c-10.7-1.8-20.1-14.3-22.1-28.7c-2.9-20-0.5-40.8,7.1-60.3c3.3-0.4,6.5-0.9,9.8-1.3c-2.4,6.1-4.3,12.3-5.7,18.5
		c6.8-0.5,13.5-1.1,20.3-1.6c-1.1,4.6-1.9,9.3-2.4,14c-6.7,0.2-13.4,0.5-20,0.7c-1.1,9.6-1,19.3,0.2,28.8c1.1,8.7,4.2,13.9,8.1,14.3
		c3.9,0.4,4.2-4.4,3-13.3C329.1,133.1,328.8,126.8,328.9,120.4z"/>
</g>
</svg>
