<svg id="Layer_1" data-name="Layer 1" xmlns="http://www.w3.org/2000/svg" viewBox="0 0 600 600.55"><defs><style>.cls-1{fill:#fff;}.cls-2{fill:#1a9b48;opacity:0.25;}.cls-3{fill:#483977;}</style></defs><circle class="cls-1" cx="300" cy="300.28" r="250"/><circle class="cls-2" cx="300" cy="300.28" r="250"/><circle class="cls-2" cx="303.18" cy="300.28" r="200"/><circle class="cls-2" cx="303.18" cy="300.28" r="150"/><rect class="cls-3" x="115.89" y="252.03" width="151.02" height="96.69" rx="29.59"/><path class="cls-3" d="M306.24,411.48l5.4-5.14-2.58-217.42c-7.23-5.95-17.54-6-24,.15l-100,95.29c-7.06,6.73-6.92,18.33.31,25.91l95,99.67C287.6,417.52,299.18,418.21,306.24,411.48Z"/><rect class="cls-3" x="351.9" y="288.29" width="151.28" height="24.17" rx="10.21"/><rect class="cls-3" x="351.9" y="212.07" width="124.83" height="24.17" rx="10.21" transform="translate(-51.68 155.22) rotate(-20)"/><rect class="cls-3" x="351.9" y="364.52" width="124.83" height="24.17" rx="10.21" transform="translate(674.84 872.2) rotate(-160)"/></svg>