<?xml version="1.0" encoding="UTF-8"?>
<svg id="Layer_1" data-name="Layer 1" xmlns="http://www.w3.org/2000/svg" width="1587.4" height="902.4" viewBox="0 0 1587.4 902.4">
  <defs>
    <style>
      .cls-1 {
        opacity: 1;
      }

      .cls-2 {
        fill: #f2f5d3;
      }
    </style>
  </defs>
  <g id="Stars" class="cls-1">
    <g>
      <path class="cls-2" d="M309.9,881.2c-1-4.4-1.8-5.2-6.2-6.2,4.4-1,5.2-1.8,6.2-6.2,1,4.4,1.8,5.2,6.2,6.2-4.4,1-5.2,1.8-6.2,6.2Z"/>
      <path class="cls-2" d="M309.9,881.2c-1-4.4-1.8-5.2-6.2-6.2,4.4-1,5.2-1.8,6.2-6.2,1,4.4,1.8,5.2,6.2,6.2-4.4,1-5.2,1.8-6.2,6.2Z"/>
    </g>
    <g>
      <path class="cls-2" d="M390.6,800.4c-1-4.4-1.8-5.2-6.2-6.2,4.4-1,5.2-1.8,6.2-6.2,1,4.4,1.8,5.2,6.2,6.2-4.4,1-5.2,1.8-6.2,6.2Z"/>
      <path class="cls-2" d="M390.6,800.4c-1-4.4-1.8-5.2-6.2-6.2,4.4-1,5.2-1.8,6.2-6.2,1,4.4,1.8,5.2,6.2,6.2-4.4,1-5.2,1.8-6.2,6.2Z"/>
    </g>
    <g>
      <path class="cls-2" d="M420.5,880.6c-1-4.4-1.8-5.2-6.2-6.2,4.4-1,5.2-1.8,6.2-6.2,1,4.4,1.8,5.2,6.2,6.2-4.4,1-5.2,1.8-6.2,6.2Z"/>
      <path class="cls-2" d="M420.5,880.6c-1-4.4-1.8-5.2-6.2-6.2,4.4-1,5.2-1.8,6.2-6.2,1,4.4,1.8,5.2,6.2,6.2-4.4,1-5.2,1.8-6.2,6.2Z"/>
    </g>
    <g>
      <path class="cls-2" d="M279.7,809.4c-1-4.4-1.8-5.2-6.2-6.2,4.4-1,5.2-1.8,6.2-6.2,1,4.4,1.8,5.2,6.2,6.2-4.4,1-5.2,1.8-6.2,6.2Z"/>
      <path class="cls-2" d="M279.7,809.4c-1-4.4-1.8-5.2-6.2-6.2,4.4-1,5.2-1.8,6.2-6.2,1,4.4,1.8,5.2,6.2,6.2-4.4,1-5.2,1.8-6.2,6.2Z"/>
    </g>
    <g id="Stars-2" data-name="Stars">
      <g>
        <path class="cls-2" d="M993.6,590.6c-6.3-5.2-7.1-5.2-13.4,0,5.2-6.3,5.2-7.1,0-13.4,6.3,5.2,7.1,5.2,13.4,0-5.2,6.3-5.2,7.1,0,13.4Z"/>
        <path class="cls-2" d="M993.6,590.6c-6.3-5.2-7.1-5.2-13.4,0,5.2-6.3,5.2-7.1,0-13.4,6.3,5.2,7.1,5.2,13.4,0-5.2,6.3-5.2,7.1,0,13.4Z"/>
      </g>
      <g>
        <path class="cls-2" d="M994.5,441c-6.3-5.2-7.1-5.2-13.4,0,5.2-6.3,5.2-7.1,0-13.4,6.3,5.2,7.1,5.2,13.4,0-5.2,6.3-5.2,7.1,0,13.4Z"/>
        <path class="cls-2" d="M994.5,441c-6.3-5.2-7.1-5.2-13.4,0,5.2-6.3,5.2-7.1,0-13.4,6.3,5.2,7.1,5.2,13.4,0-5.2,6.3-5.2,7.1,0,13.4Z"/>
      </g>
      <g>
        <path class="cls-2" d="M529.7,633.1c-6.3-5.2-7.1-5.2-13.4,0,5.2-6.3,5.2-7.1,0-13.4,6.3,5.2,7.1,5.2,13.4,0-5.2,6.3-5.2,7.1,0,13.4Z"/>
        <path class="cls-2" d="M529.7,633.1c-6.3-5.2-7.1-5.2-13.4,0,5.2-6.3,5.2-7.1,0-13.4,6.3,5.2,7.1,5.2,13.4,0-5.2,6.3-5.2,7.1,0,13.4Z"/>
      </g>
      <g>
        <path class="cls-2" d="M836.8,635.3c-6.3-5.2-7.1-5.2-13.4,0,5.2-6.3,5.2-7.1,0-13.4,6.3,5.2,7.1,5.2,13.4,0-5.2,6.3-5.2,7.1,0,13.4Z"/>
        <path class="cls-2" d="M836.8,635.3c-6.3-5.2-7.1-5.2-13.4,0,5.2-6.3,5.2-7.1,0-13.4,6.3,5.2,7.1,5.2,13.4,0-5.2,6.3-5.2,7.1,0,13.4Z"/>
      </g>
      <path class="cls-2" d="M545.2,517.4c-8.1,.7-8.7,1.4-9.5,9.5-.7-8.1-1.4-8.7-9.5-9.5,8.1-.7,8.7-1.4,9.5-9.5,.7,8.1,1.4,8.7,9.5,9.5Z"/>
      <g>
        <path class="cls-2" d="M605.7,515.6c-8.1,.7-8.7,1.4-9.5,9.5-.7-8.1-1.4-8.7-9.5-9.5,8.1-.7,8.7-1.4,9.5-9.5,.7,8.1,1.4,8.7,9.5,9.5Z"/>
        <path class="cls-2" d="M605.7,515.6c-8.1,.7-8.7,1.4-9.5,9.5-.7-8.1-1.4-8.7-9.5-9.5,8.1-.7,8.7-1.4,9.5-9.5,.7,8.1,1.4,8.7,9.5,9.5Z"/>
      </g>
      <g>
        <path class="cls-2" d="M713.7,273.6c-8.1,.7-8.7,1.4-9.5,9.5-.7-8.1-1.4-8.7-9.5-9.5,8.1-.7,8.7-1.4,9.5-9.5,.7,8.1,1.4,8.7,9.5,9.5Z"/>
        <path class="cls-2" d="M657.2,321.4c-8.1,.7-8.7,1.4-9.5,9.5-.7-8.1-1.4-8.7-9.5-9.5,8.1-.7,8.7-1.4,9.5-9.5,.7,8.1,1.4,8.7,9.5,9.5Z"/>
      </g>
      <path class="cls-2" d="M839,86.1c-8.1,.7-8.7,1.4-9.5,9.5-.7-8.1-1.4-8.7-9.5-9.5,8.1-.7,8.7-1.4,9.5-9.5,.7,8.1,1.4,8.7,9.5,9.5Z"/>
      <g>
        <path class="cls-2" d="M1064.8,178.8c-8.1,.7-8.7,1.4-9.5,9.5-.7-8.1-1.4-8.7-9.5-9.5,8.1-.7,8.7-1.4,9.5-9.5,.7,8.1,1.4,8.7,9.5,9.5Z"/>
        <path class="cls-2" d="M1064.8,178.8c-8.1,.7-8.7,1.4-9.5,9.5-.7-8.1-1.4-8.7-9.5-9.5,8.1-.7,8.7-1.4,9.5-9.5,.7,8.1,1.4,8.7,9.5,9.5Z"/>
      </g>
      <path class="cls-2" d="M1070.1,241.9c-8.1,.7-8.7,1.4-9.5,9.5-.7-8.1-1.4-8.7-9.5-9.5,8.1-.7,8.7-1.4,9.5-9.5,.7,8.1,1.4,8.7,9.5,9.5Z"/>
      <g>
        <path class="cls-2" d="M836.3,278.6c-6.3-5.2-7.1-5.2-13.4,0,5.2-6.3,5.2-7.1,0-13.4,6.3,5.2,7.1,5.2,13.4,0-5.2,6.3-5.2,7.1,0,13.4Z"/>
        <path class="cls-2" d="M836.3,278.6c-6.3-5.2-7.1-5.2-13.4,0,5.2-6.3,5.2-7.1,0-13.4,6.3,5.2,7.1,5.2,13.4,0-5.2,6.3-5.2,7.1,0,13.4Z"/>
      </g>
      <g>
        <path class="cls-2" d="M902.9,215.9c-6.3-5.2-7.1-5.2-13.4,0,5.2-6.3,5.2-7.1,0-13.4,6.3,5.2,7.1,5.2,13.4,0-5.2,6.3-5.2,7.1,0,13.4Z"/>
        <path class="cls-2" d="M902.9,215.9c-6.3-5.2-7.1-5.2-13.4,0,5.2-6.3,5.2-7.1,0-13.4,6.3,5.2,7.1,5.2,13.4,0-5.2,6.3-5.2,7.1,0,13.4Z"/>
      </g>
      <g>
        <path class="cls-2" d="M924.5,338c-8.1,.7-8.7,1.4-9.5,9.5-.7-8.1-1.4-8.7-9.5-9.5,8.1-.7,8.7-1.4,9.5-9.5,.7,8.1,1.4,8.7,9.5,9.5Z"/>
        <path class="cls-2" d="M924.5,338c-8.1,.7-8.7,1.4-9.5,9.5-.7-8.1-1.4-8.7-9.5-9.5,8.1-.7,8.7-1.4,9.5-9.5,.7,8.1,1.4,8.7,9.5,9.5Z"/>
      </g>
      <g>
        <path class="cls-2" d="M779,659.5c-9.7,.9-10.4,1.6-11.3,11.3-.9-9.7-1.6-10.4-11.3-11.3,9.7-.9,10.4-1.6,11.3-11.3,.9,9.7,1.6,10.4,11.3,11.3Z"/>
        <path class="cls-2" d="M779,659.5c-9.7,.9-10.4,1.6-11.3,11.3-.9-9.7-1.6-10.4-11.3-11.3,9.7-.9,10.4-1.6,11.3-11.3,.9,9.7,1.6,10.4,11.3,11.3Z"/>
      </g>
      <g>
        <path class="cls-2" d="M535.7,728.9c-9.7,.9-10.4,1.6-11.3,11.3-.9-9.7-1.6-10.4-11.3-11.3,9.7-.9,10.4-1.6,11.3-11.3,.9,9.7,1.6,10.4,11.3,11.3Z"/>
        <path class="cls-2" d="M535.7,728.9c-9.7,.9-10.4,1.6-11.3,11.3-.9-9.7-1.6-10.4-11.3-11.3,9.7-.9,10.4-1.6,11.3-11.3,.9,9.7,1.6,10.4,11.3,11.3Z"/>
      </g>
      <g>
        <path class="cls-2" d="M1050.3,458.3c-9.7,.9-10.4,1.6-11.3,11.3-.9-9.7-1.6-10.4-11.3-11.3,9.7-.9,10.4-1.6,11.3-11.3,.9,9.7,1.6,10.4,11.3,11.3Z"/>
        <path class="cls-2" d="M1081.7,526.8c-9.7,.9-10.4,1.6-11.3,11.3-.9-9.7-1.6-10.4-11.3-11.3,9.7-.9,10.4-1.6,11.3-11.3,.9,9.7,1.6,10.4,11.3,11.3Z"/>
      </g>
      <g>
        <path class="cls-2" d="M954.6,248.6c-9.7,.9-10.4,1.6-11.3,11.3-.9-9.7-1.6-10.4-11.3-11.3,9.7-.9,10.4-1.6,11.3-11.3,.9,9.7,1.6,10.4,11.3,11.3Z"/>
        <path class="cls-2" d="M954.6,248.6c-9.7,.9-10.4,1.6-11.3,11.3-.9-9.7-1.6-10.4-11.3-11.3,9.7-.9,10.4-1.6,11.3-11.3,.9,9.7,1.6,10.4,11.3,11.3Z"/>
      </g>
      <g>
        <path class="cls-2" d="M928.6,137.4c-9.7,.9-10.4,1.6-11.3,11.3-.9-9.7-1.6-10.4-11.3-11.3,9.7-.9,10.4-1.6,11.3-11.3,.9,9.7,1.6,10.4,11.3,11.3Z"/>
        <path class="cls-2" d="M928.6,137.4c-9.7,.9-10.4,1.6-11.3,11.3-.9-9.7-1.6-10.4-11.3-11.3,9.7-.9,10.4-1.6,11.3-11.3,.9,9.7,1.6,10.4,11.3,11.3Z"/>
      </g>
      <g>
        <path class="cls-2" d="M1011.3,509.5c-9.7,.9-10.4,1.6-11.3,11.3-.9-9.7-1.6-10.4-11.3-11.3,9.7-.9,10.4-1.6,11.3-11.3,.9,9.7,1.6,10.4,11.3,11.3Z"/>
        <path class="cls-2" d="M1011.3,509.5c-9.7,.9-10.4,1.6-11.3,11.3-.9-9.7-1.6-10.4-11.3-11.3,9.7-.9,10.4-1.6,11.3-11.3,.9,9.7,1.6,10.4,11.3,11.3Z"/>
        <path class="cls-2" d="M1072.3,617.7c-9.7,.9-10.4,1.6-11.3,11.3-.9-9.7-1.6-10.4-11.3-11.3,9.7-.9,10.4-1.6,11.3-11.3,.9,9.7,1.6,10.4,11.3,11.3Z"/>
      </g>
      <g>
        <path class="cls-2" d="M969.2,301.4c-14.1,1.3-15.1,2.3-16.4,16.4-1.3-14.1-2.3-15.1-16.4-16.4,14.1-1.3,15.1-2.3,16.4-16.4,1.3,14.1,2.3,15.1,16.4,16.4Z"/>
        <path class="cls-2" d="M969.2,301.4c-14.1,1.3-15.1,2.3-16.4,16.4-1.3-14.1-2.3-15.1-16.4-16.4,14.1-1.3,15.1-2.3,16.4-16.4,1.3,14.1,2.3,15.1,16.4,16.4Z"/>
      </g>
      <path class="cls-2" d="M1110.6,706.3c-8.3-6.9-9.4-6.9-17.7,0,6.9-8.3,6.9-9.4,0-17.7,8.3,6.9,9.4,6.9,17.7,0-6.9,8.3-6.9,9.4,0,17.7Z"/>
      <g>
        <path class="cls-2" d="M615.1,253.4c-4.4,1-5.2,1.8-6.2,6.2-1-4.4-1.8-5.2-6.2-6.2,4.4-1,5.2-1.8,6.2-6.2,1,4.4,1.8,5.2,6.2,6.2Z"/>
        <path class="cls-2" d="M615.1,253.4c-4.4,1-5.2,1.8-6.2,6.2-1-4.4-1.8-5.2-6.2-6.2,4.4-1,5.2-1.8,6.2-6.2,1,4.4,1.8,5.2,6.2,6.2Z"/>
      </g>
      <g>
        <path class="cls-2" d="M534.3,172.7c-4.4,1-5.2,1.8-6.2,6.2-1-4.4-1.8-5.2-6.2-6.2,4.4-1,5.2-1.8,6.2-6.2,1,4.4,1.8,5.2,6.2,6.2Z"/>
        <path class="cls-2" d="M534.3,172.7c-4.4,1-5.2,1.8-6.2,6.2-1-4.4-1.8-5.2-6.2-6.2,4.4-1,5.2-1.8,6.2-6.2,1,4.4,1.8,5.2,6.2,6.2Z"/>
      </g>
      <g>
        <path class="cls-2" d="M656.9,197.8c-4.4,1-5.2,1.8-6.2,6.2-1-4.4-1.8-5.2-6.2-6.2,4.4-1,5.2-1.8,6.2-6.2,1,4.4,1.8,5.2,6.2,6.2Z"/>
        <path class="cls-2" d="M656.9,197.8c-4.4,1-5.2,1.8-6.2,6.2-1-4.4-1.8-5.2-6.2-6.2,4.4-1,5.2-1.8,6.2-6.2,1,4.4,1.8,5.2,6.2,6.2Z"/>
      </g>
      <g>
        <path class="cls-2" d="M614.5,142.9c-4.4,1-5.2,1.8-6.2,6.2-1-4.4-1.8-5.2-6.2-6.2,4.4-1,5.2-1.8,6.2-6.2,1,4.4,1.8,5.2,6.2,6.2Z"/>
        <path class="cls-2" d="M614.5,142.9c-4.4,1-5.2,1.8-6.2,6.2-1-4.4-1.8-5.2-6.2-6.2,4.4-1,5.2-1.8,6.2-6.2,1,4.4,1.8,5.2,6.2,6.2Z"/>
      </g>
      <path class="cls-2" d="M569.1,238.9c-4.4,1-5.2,1.8-6.2,6.2-1-4.4-1.8-5.2-6.2-6.2,4.4-1,5.2-1.8,6.2-6.2,1,4.4,1.8,5.2,6.2,6.2Z"/>
      <g>
        <path class="cls-2" d="M929.7,498.1c-8.1,.7-8.7,1.4-9.5,9.5-.7-8.1-1.4-8.7-9.5-9.5,8.1-.7,8.7-1.4,9.5-9.5,.7,8.1,1.4,8.7,9.5,9.5Z"/>
        <path class="cls-2" d="M873.2,545.9c-8.1,.7-8.7,1.4-9.5,9.5-.7-8.1-1.4-8.7-9.5-9.5,8.1-.7,8.7-1.4,9.5-9.5,.7,8.1,1.4,8.7,9.5,9.5Z"/>
      </g>
      <g>
        <path class="cls-2" d="M831.2,477.9c-4.4,1-5.2,1.8-6.2,6.2-1-4.4-1.8-5.2-6.2-6.2,4.4-1,5.2-1.8,6.2-6.2,1,4.4,1.8,5.2,6.2,6.2Z"/>
        <path class="cls-2" d="M831.2,477.9c-4.4,1-5.2,1.8-6.2,6.2-1-4.4-1.8-5.2-6.2-6.2,4.4-1,5.2-1.8,6.2-6.2,1,4.4,1.8,5.2,6.2,6.2Z"/>
      </g>
      <g>
        <path class="cls-2" d="M750.4,397.2c-4.4,1-5.2,1.8-6.2,6.2-1-4.4-1.8-5.2-6.2-6.2,4.4-1,5.2-1.8,6.2-6.2,1,4.4,1.8,5.2,6.2,6.2Z"/>
        <path class="cls-2" d="M750.4,397.2c-4.4,1-5.2,1.8-6.2,6.2-1-4.4-1.8-5.2-6.2-6.2,4.4-1,5.2-1.8,6.2-6.2,1,4.4,1.8,5.2,6.2,6.2Z"/>
      </g>
      <g>
        <path class="cls-2" d="M872.9,422.3c-4.4,1-5.2,1.8-6.2,6.2-1-4.4-1.8-5.2-6.2-6.2,4.4-1,5.2-1.8,6.2-6.2,1,4.4,1.8,5.2,6.2,6.2Z"/>
        <path class="cls-2" d="M872.9,422.3c-4.4,1-5.2,1.8-6.2,6.2-1-4.4-1.8-5.2-6.2-6.2,4.4-1,5.2-1.8,6.2-6.2,1,4.4,1.8,5.2,6.2,6.2Z"/>
      </g>
      <path class="cls-2" d="M833.8,367.3c-8.1,.7-8.7,1.4-9.5,9.5-.7-8.1-1.4-8.7-9.5-9.5,8.1-.7,8.7-1.4,9.5-9.5,.7,8.1,1.4,8.7,9.5,9.5Z"/>
      <path class="cls-2" d="M833.8,367.3c-8.1,.7-8.7,1.4-9.5,9.5-.7-8.1-1.4-8.7-9.5-9.5,8.1-.7,8.7-1.4,9.5-9.5,.7,8.1,1.4,8.7,9.5,9.5Z"/>
      <path class="cls-2" d="M785.2,463.4c-4.4,1-5.2,1.8-6.2,6.2-1-4.4-1.8-5.2-6.2-6.2,4.4-1,5.2-1.8,6.2-6.2,1,4.4,1.8,5.2,6.2,6.2Z"/>
      <g>
        <path class="cls-2" d="M726.9,564.2c-4.4,1-5.2,1.8-6.2,6.2-1-4.4-1.8-5.2-6.2-6.2,4.4-1,5.2-1.8,6.2-6.2,1,4.4,1.8,5.2,6.2,6.2Z"/>
        <path class="cls-2" d="M705.9,767.4c-4.4,1-5.2,1.8-6.2,6.2-1-4.4-1.8-5.2-6.2-6.2,4.4-1,5.2-1.8,6.2-6.2,1,4.4,1.8,5.2,6.2,6.2Z"/>
      </g>
      <g>
        <path class="cls-2" d="M566.8,551.7c-4.4,1-5.2,1.8-6.2,6.2-1-4.4-1.8-5.2-6.2-6.2,4.4-1,5.2-1.8,6.2-6.2,1,4.4,1.8,5.2,6.2,6.2Z"/>
        <path class="cls-2" d="M566.8,551.7c-4.4,1-5.2,1.8-6.2,6.2-1-4.4-1.8-5.2-6.2-6.2,4.4-1,5.2-1.8,6.2-6.2,1,4.4,1.8,5.2,6.2,6.2Z"/>
      </g>
      <path class="cls-2" d="M711.8,105c-4.4,1-5.2,1.8-6.2,6.2-1-4.4-1.8-5.2-6.2-6.2,4.4-1,5.2-1.8,6.2-6.2,1,4.4,1.8,5.2,6.2,6.2Z"/>
      <path class="cls-2" d="M829,691.6c-4.4,1-5.2,1.8-6.2,6.2-1-4.4-1.8-5.2-6.2-6.2,4.4-1,5.2-1.8,6.2-6.2,1,4.4,1.8,5.2,6.2,6.2Z"/>
      <g>
        <path class="cls-2" d="M998.1,797.9c-3.8-2.4-5-2.4-8.8,0,2.4-3.8,2.4-5,0-8.8,3.8,2.4,5,2.4,8.8,0-2.4,3.8-2.4,5,0,8.8Z"/>
        <path class="cls-2" d="M1026.2,698.2c-3.8-2.4-5-2.4-8.8,0,2.4-3.8,2.4-5,0-8.8,3.8,2.4,5,2.4,8.8,0-2.4,3.8-2.4,5,0,8.8Z"/>
      </g>
      <g>
        <path class="cls-2" d="M876.5,724.6c-3.8-2.4-5-2.4-8.8,0,2.4-3.8,2.4-5,0-8.8,3.8,2.4,5,2.4,8.8,0-2.4,3.8-2.4,5,0,8.8Z"/>
        <path class="cls-2" d="M876.5,724.6c-3.8-2.4-5-2.4-8.8,0,2.4-3.8,2.4-5,0-8.8,3.8,2.4,5,2.4,8.8,0-2.4,3.8-2.4,5,0,8.8Z"/>
      </g>
    </g>
    <path class="cls-2" d="M1127.4,255.3c-6.3-5.2-7.1-5.2-13.4,0,5.2-6.3,5.2-7.1,0-13.4,6.3,5.2,7.1,5.2,13.4,0-5.2,6.3-5.2,7.1,0,13.4Z"/>
    <g>
      <path class="cls-2" d="M1172,142.6c-8.1,.7-8.7,1.4-9.5,9.5-.7-8.1-1.4-8.7-9.5-9.5,8.1-.7,8.7-1.4,9.5-9.5,.7,8.1,1.4,8.7,9.5,9.5Z"/>
      <path class="cls-2" d="M1172,142.6c-8.1,.7-8.7,1.4-9.5,9.5-.7-8.1-1.4-8.7-9.5-9.5,8.1-.7,8.7-1.4,9.5-9.5,.7,8.1,1.4,8.7,9.5,9.5Z"/>
    </g>
    <g>
      <path class="cls-2" d="M1205.9,191.4c-8.1,.7-8.7,1.4-9.5,9.5-.7-8.1-1.4-8.7-9.5-9.5,8.1-.7,8.7-1.4,9.5-9.5,.7,8.1,1.4,8.7,9.5,9.5Z"/>
      <path class="cls-2" d="M1205.9,191.4c-8.1,.7-8.7,1.4-9.5,9.5-.7-8.1-1.4-8.7-9.5-9.5,8.1-.7,8.7-1.4,9.5-9.5,.7,8.1,1.4,8.7,9.5,9.5Z"/>
    </g>
    <g>
      <path class="cls-2" d="M1279.7,136.3c-8.1,.7-8.7,1.4-9.5,9.5-.7-8.1-1.4-8.7-9.5-9.5,8.1-.7,8.7-1.4,9.5-9.5,.7,8.1,1.4,8.7,9.5,9.5Z"/>
      <path class="cls-2" d="M1279.7,136.3c-8.1,.7-8.7,1.4-9.5,9.5-.7-8.1-1.4-8.7-9.5-9.5,8.1-.7,8.7-1.4,9.5-9.5,.7,8.1,1.4,8.7,9.5,9.5Z"/>
    </g>
    <g>
      <path class="cls-2" d="M1200.7,285c-9.7,.9-10.4,1.6-11.3,11.3-.9-9.7-1.6-10.4-11.3-11.3,9.7-.9,10.4-1.6,11.3-11.3,.9,9.7,1.6,10.4,11.3,11.3Z"/>
      <path class="cls-2" d="M1200.7,285c-9.7,.9-10.4,1.6-11.3,11.3-.9-9.7-1.6-10.4-11.3-11.3,9.7-.9,10.4-1.6,11.3-11.3,.9,9.7,1.6,10.4,11.3,11.3Z"/>
    </g>
    <g>
      <path class="cls-2" d="M1135.9,404.7c-9.7,.9-10.4,1.6-11.3,11.3-.9-9.7-1.6-10.4-11.3-11.3,9.7-.9,10.4-1.6,11.3-11.3,.9,9.7,1.6,10.4,11.3,11.3Z"/>
      <path class="cls-2" d="M1135.9,404.7c-9.7,.9-10.4,1.6-11.3,11.3-.9-9.7-1.6-10.4-11.3-11.3,9.7-.9,10.4-1.6,11.3-11.3,.9,9.7,1.6,10.4,11.3,11.3Z"/>
    </g>
    <g>
      <path class="cls-2" d="M1080.8,137.8c-4.4,1-5.2,1.8-6.2,6.2-1-4.4-1.8-5.2-6.2-6.2,4.4-1,5.2-1.8,6.2-6.2,1,4.4,1.8,5.2,6.2,6.2Z"/>
      <path class="cls-2" d="M1080.8,137.8c-4.4,1-5.2,1.8-6.2,6.2-1-4.4-1.8-5.2-6.2-6.2,4.4-1,5.2-1.8,6.2-6.2,1,4.4,1.8,5.2,6.2,6.2Z"/>
    </g>
    <g>
      <path class="cls-2" d="M1161.3,60c-4.4,1-5.2,1.8-6.2,6.2-1-4.4-1.8-5.2-6.2-6.2,4.4-1,5.2-1.8,6.2-6.2,1,4.4,1.8,5.2,6.2,6.2Z"/>
      <path class="cls-2" d="M1161.3,60c-4.4,1-5.2,1.8-6.2,6.2-1-4.4-1.8-5.2-6.2-6.2,4.4-1,5.2-1.8,6.2-6.2,1,4.4,1.8,5.2,6.2,6.2Z"/>
    </g>
    <g>
      <path class="cls-2" d="M1101.8,55.7c-4.4,1-5.2,1.8-6.2,6.2-1-4.4-1.8-5.2-6.2-6.2,4.4-1,5.2-1.8,6.2-6.2,1,4.4,1.8,5.2,6.2,6.2Z"/>
      <path class="cls-2" d="M1101.8,55.7c-4.4,1-5.2,1.8-6.2,6.2-1-4.4-1.8-5.2-6.2-6.2,4.4-1,5.2-1.8,6.2-6.2,1,4.4,1.8,5.2,6.2,6.2Z"/>
    </g>
    <g>
      <path class="cls-2" d="M1323,279.2c-4.4,1-5.2,1.8-6.2,6.2-1-4.4-1.8-5.2-6.2-6.2,4.4-1,5.2-1.8,6.2-6.2,1,4.4,1.8,5.2,6.2,6.2Z"/>
      <path class="cls-2" d="M1323,279.2c-4.4,1-5.2,1.8-6.2,6.2-1-4.4-1.8-5.2-6.2-6.2,4.4-1,5.2-1.8,6.2-6.2,1,4.4,1.8,5.2,6.2,6.2Z"/>
    </g>
    <g>
      <path class="cls-2" d="M1250.8,169.4c-4.4,1-5.2,1.8-6.2,6.2-1-4.4-1.8-5.2-6.2-6.2,4.4-1,5.2-1.8,6.2-6.2,1,4.4,1.8,5.2,6.2,6.2Z"/>
      <path class="cls-2" d="M1250.8,169.4c-4.4,1-5.2,1.8-6.2,6.2-1-4.4-1.8-5.2-6.2-6.2,4.4-1,5.2-1.8,6.2-6.2,1,4.4,1.8,5.2,6.2,6.2Z"/>
    </g>
    <g>
      <path class="cls-2" d="M1167,227.5c-4.4,1-5.2,1.8-6.2,6.2-1-4.4-1.8-5.2-6.2-6.2,4.4-1,5.2-1.8,6.2-6.2,1,4.4,1.8,5.2,6.2,6.2Z"/>
      <path class="cls-2" d="M1167,227.5c-4.4,1-5.2,1.8-6.2,6.2-1-4.4-1.8-5.2-6.2-6.2,4.4-1,5.2-1.8,6.2-6.2,1,4.4,1.8,5.2,6.2,6.2Z"/>
    </g>
    <g>
      <path class="cls-2" d="M1173.3,350c-4.4,1-5.2,1.8-6.2,6.2-1-4.4-1.8-5.2-6.2-6.2,4.4-1,5.2-1.8,6.2-6.2,1,4.4,1.8,5.2,6.2,6.2Z"/>
      <path class="cls-2" d="M1173.3,350c-4.4,1-5.2,1.8-6.2,6.2-1-4.4-1.8-5.2-6.2-6.2,4.4-1,5.2-1.8,6.2-6.2,1,4.4,1.8,5.2,6.2,6.2Z"/>
    </g>
    <g>
      <path class="cls-2" d="M1313.3,16.2c-4.4,1-5.2,1.8-6.2,6.2-1-4.4-1.8-5.2-6.2-6.2,4.4-1,5.2-1.8,6.2-6.2,1,4.4,1.8,5.2,6.2,6.2Z"/>
      <path class="cls-2" d="M1313.3,16.2c-4.4,1-5.2,1.8-6.2,6.2-1-4.4-1.8-5.2-6.2-6.2,4.4-1,5.2-1.8,6.2-6.2,1,4.4,1.8,5.2,6.2,6.2Z"/>
    </g>
    <g>
      <path class="cls-2" d="M1302.4,310.9c-3.8-2.4-5-2.4-8.8,0,2.4-3.8,2.4-5,0-8.8,3.8,2.4,5,2.4,8.8,0-2.4,3.8-2.4,5,0,8.8Z"/>
      <path class="cls-2" d="M1302.4,310.9c-3.8-2.4-5-2.4-8.8,0,2.4-3.8,2.4-5,0-8.8,3.8,2.4,5,2.4,8.8,0-2.4,3.8-2.4,5,0,8.8Z"/>
    </g>
    <g>
      <path class="cls-2" d="M1258.2,48c-4.4,1-5.2,1.8-6.2,6.2-1-4.4-1.8-5.2-6.2-6.2,4.4-1,5.2-1.8,6.2-6.2,1,4.4,1.8,5.2,6.2,6.2Z"/>
      <path class="cls-2" d="M1258.2,48c-4.4,1-5.2,1.8-6.2,6.2-1-4.4-1.8-5.2-6.2-6.2,4.4-1,5.2-1.8,6.2-6.2,1,4.4,1.8,5.2,6.2,6.2Z"/>
    </g>
    <g>
      <path class="cls-2" d="M1265.5,669c-6.3-5.2-7.1-5.2-13.4,0,5.2-6.3,5.2-7.1,0-13.4,6.3,5.2,7.1,5.2,13.4,0-5.2,6.3-5.2,7.1,0,13.4Z"/>
      <path class="cls-2" d="M1265.5,669c-6.3-5.2-7.1-5.2-13.4,0,5.2-6.3,5.2-7.1,0-13.4,6.3,5.2,7.1,5.2,13.4,0-5.2,6.3-5.2,7.1,0,13.4Z"/>
    </g>
    <g>
      <path class="cls-2" d="M1140.6,769.5c-8.1,.7-8.7,1.4-9.5,9.5-.7-8.1-1.4-8.7-9.5-9.5,8.1-.7,8.7-1.4,9.5-9.5,.7,8.1,1.4,8.7,9.5,9.5Z"/>
      <path class="cls-2" d="M1140.6,769.5c-8.1,.7-8.7,1.4-9.5,9.5-.7-8.1-1.4-8.7-9.5-9.5,8.1-.7,8.7-1.4,9.5-9.5,.7,8.1,1.4,8.7,9.5,9.5Z"/>
    </g>
    <g>
      <path class="cls-2" d="M1174.6,818.3c-8.1,.7-8.7,1.4-9.5,9.5-.7-8.1-1.4-8.7-9.5-9.5,8.1-.7,8.7-1.4,9.5-9.5,.7,8.1,1.4,8.7,9.5,9.5Z"/>
      <path class="cls-2" d="M1174.6,818.3c-8.1,.7-8.7,1.4-9.5,9.5-.7-8.1-1.4-8.7-9.5-9.5,8.1-.7,8.7-1.4,9.5-9.5,.7,8.1,1.4,8.7,9.5,9.5Z"/>
    </g>
    <g>
      <path class="cls-2" d="M1282.5,576.3c-8.1,.7-8.7,1.4-9.5,9.5-.7-8.1-1.4-8.7-9.5-9.5,8.1-.7,8.7-1.4,9.5-9.5,.7,8.1,1.4,8.7,9.5,9.5Z"/>
      <path class="cls-2" d="M1282.5,576.3c-8.1,.7-8.7,1.4-9.5,9.5-.7-8.1-1.4-8.7-9.5-9.5,8.1-.7,8.7-1.4,9.5-9.5,.7,8.1,1.4,8.7,9.5,9.5Z"/>
    </g>
    <g>
      <path class="cls-2" d="M1256.9,371.1c-8.1,.7-8.7,1.4-9.5,9.5-.7-8.1-1.4-8.7-9.5-9.5,8.1-.7,8.7-1.4,9.5-9.5,.7,8.1,1.4,8.7,9.5,9.5Z"/>
      <path class="cls-2" d="M1256.9,371.1c-8.1,.7-8.7,1.4-9.5,9.5-.7-8.1-1.4-8.7-9.5-9.5,8.1-.7,8.7-1.4,9.5-9.5,.7,8.1,1.4,8.7,9.5,9.5Z"/>
    </g>
    <g>
      <path class="cls-2" d="M1297.4,429.1c-6.3-5.2-7.1-5.2-13.4,0,5.2-6.3,5.2-7.1,0-13.4,6.3,5.2,7.1,5.2,13.4,0-5.2,6.3-5.2,7.1,0,13.4Z"/>
      <path class="cls-2" d="M1297.4,429.1c-6.3-5.2-7.1-5.2-13.4,0,5.2-6.3,5.2-7.1,0-13.4,6.3,5.2,7.1,5.2,13.4,0-5.2,6.3-5.2,7.1,0,13.4Z"/>
    </g>
    <g>
      <path class="cls-2" d="M1203.5,732.3c-9.7,.9-10.4,1.6-11.3,11.3-.9-9.7-1.6-10.4-11.3-11.3,9.7-.9,10.4-1.6,11.3-11.3,.9,9.7,1.6,10.4,11.3,11.3Z"/>
      <path class="cls-2" d="M1203.5,732.3c-9.7,.9-10.4,1.6-11.3,11.3-.9-9.7-1.6-10.4-11.3-11.3,9.7-.9,10.4-1.6,11.3-11.3,.9,9.7,1.6,10.4,11.3,11.3Z"/>
    </g>
    <g>
      <path class="cls-2" d="M1323.1,350.6c-9.7,.9-10.4,1.6-11.3,11.3-.9-9.7-1.6-10.4-11.3-11.3,9.7-.9,10.4-1.6,11.3-11.3,.9,9.7,1.6,10.4,11.3,11.3Z"/>
      <path class="cls-2" d="M1323.1,350.6c-9.7,.9-10.4,1.6-11.3,11.3-.9-9.7-1.6-10.4-11.3-11.3,9.7-.9,10.4-1.6,11.3-11.3,.9,9.7,1.6,10.4,11.3,11.3Z"/>
    </g>
    <g>
      <path class="cls-2" d="M1183.9,556.1c-4.4,1-5.2,1.8-6.2,6.2-1-4.4-1.8-5.2-6.2-6.2,4.4-1,5.2-1.8,6.2-6.2,1,4.4,1.8,5.2,6.2,6.2Z"/>
      <path class="cls-2" d="M1183.9,556.1c-4.4,1-5.2,1.8-6.2,6.2-1-4.4-1.8-5.2-6.2-6.2,4.4-1,5.2-1.8,6.2-6.2,1,4.4,1.8,5.2,6.2,6.2Z"/>
    </g>
    <g>
      <path class="cls-2" d="M1103.2,475.4c-4.4,1-5.2,1.8-6.2,6.2-1-4.4-1.8-5.2-6.2-6.2,4.4-1,5.2-1.8,6.2-6.2,1,4.4,1.8,5.2,6.2,6.2Z"/>
      <path class="cls-2" d="M1103.2,475.4c-4.4,1-5.2,1.8-6.2,6.2-1-4.4-1.8-5.2-6.2-6.2,4.4-1,5.2-1.8,6.2-6.2,1,4.4,1.8,5.2,6.2,6.2Z"/>
    </g>
    <g>
      <path class="cls-2" d="M1225.7,500.5c-4.4,1-5.2,1.8-6.2,6.2-1-4.4-1.8-5.2-6.2-6.2,4.4-1,5.2-1.8,6.2-6.2,1,4.4,1.8,5.2,6.2,6.2Z"/>
      <path class="cls-2" d="M1225.7,500.5c-4.4,1-5.2,1.8-6.2,6.2-1-4.4-1.8-5.2-6.2-6.2,4.4-1,5.2-1.8,6.2-6.2,1,4.4,1.8,5.2,6.2,6.2Z"/>
    </g>
    <g>
      <path class="cls-2" d="M1183.3,445.6c-4.4,1-5.2,1.8-6.2,6.2-1-4.4-1.8-5.2-6.2-6.2,4.4-1,5.2-1.8,6.2-6.2,1,4.4,1.8,5.2,6.2,6.2Z"/>
      <path class="cls-2" d="M1183.3,445.6c-4.4,1-5.2,1.8-6.2,6.2-1-4.4-1.8-5.2-6.2-6.2,4.4-1,5.2-1.8,6.2-6.2,1,4.4,1.8,5.2,6.2,6.2Z"/>
    </g>
    <g>
      <path class="cls-2" d="M1112.1,586.3c-4.4,1-5.2,1.8-6.2,6.2-1-4.4-1.8-5.2-6.2-6.2,4.4-1,5.2-1.8,6.2-6.2,1,4.4,1.8,5.2,6.2,6.2Z"/>
      <path class="cls-2" d="M1112.1,586.3c-4.4,1-5.2,1.8-6.2,6.2-1-4.4-1.8-5.2-6.2-6.2,4.4-1,5.2-1.8,6.2-6.2,1,4.4,1.8,5.2,6.2,6.2Z"/>
    </g>
    <g>
      <path class="cls-2" d="M1151.5,637.1c-4.4,1-5.2,1.8-6.2,6.2-1-4.4-1.8-5.2-6.2-6.2,4.4-1,5.2-1.8,6.2-6.2,1,4.4,1.8,5.2,6.2,6.2Z"/>
      <path class="cls-2" d="M1151.5,637.1c-4.4,1-5.2,1.8-6.2,6.2-1-4.4-1.8-5.2-6.2-6.2,4.4-1,5.2-1.8,6.2-6.2,1,4.4,1.8,5.2,6.2,6.2Z"/>
    </g>
    <g>
      <path class="cls-2" d="M1219.5,796.3c-4.4,1-5.2,1.8-6.2,6.2-1-4.4-1.8-5.2-6.2-6.2,4.4-1,5.2-1.8,6.2-6.2,1,4.4,1.8,5.2,6.2,6.2Z"/>
      <path class="cls-2" d="M1219.5,796.3c-4.4,1-5.2,1.8-6.2,6.2-1-4.4-1.8-5.2-6.2-6.2,4.4-1,5.2-1.8,6.2-6.2,1,4.4,1.8,5.2,6.2,6.2Z"/>
    </g>
    <g>
      <path class="cls-2" d="M1135.7,854.4c-4.4,1-5.2,1.8-6.2,6.2-1-4.4-1.8-5.2-6.2-6.2,4.4-1,5.2-1.8,6.2-6.2,1,4.4,1.8,5.2,6.2,6.2Z"/>
      <path class="cls-2" d="M1135.7,854.4c-4.4,1-5.2,1.8-6.2,6.2-1-4.4-1.8-5.2-6.2-6.2,4.4-1,5.2-1.8,6.2-6.2,1,4.4,1.8,5.2,6.2,6.2Z"/>
    </g>
    <g>
      <path class="cls-2" d="M1316.2,456.1c-4.4,1-5.2,1.8-6.2,6.2-1-4.4-1.8-5.2-6.2-6.2,4.4-1,5.2-1.8,6.2-6.2,1,4.4,1.8,5.2,6.2,6.2Z"/>
      <path class="cls-2" d="M1316.2,456.1c-4.4,1-5.2,1.8-6.2,6.2-1-4.4-1.8-5.2-6.2-6.2,4.4-1,5.2-1.8,6.2-6.2,1,4.4,1.8,5.2,6.2,6.2Z"/>
    </g>
    <g>
      <path class="cls-2" d="M1226.7,647.3c-4.4,1-5.2,1.8-6.2,6.2-1-4.4-1.8-5.2-6.2-6.2,4.4-1,5.2-1.8,6.2-6.2,1,4.4,1.8,5.2,6.2,6.2Z"/>
      <path class="cls-2" d="M1226.7,647.3c-4.4,1-5.2,1.8-6.2,6.2-1-4.4-1.8-5.2-6.2-6.2,4.4-1,5.2-1.8,6.2-6.2,1,4.4,1.8,5.2,6.2,6.2Z"/>
    </g>
    <g>
      <path class="cls-2" d="M1305.2,758.3c-3.8-2.4-5-2.4-8.8,0,2.4-3.8,2.4-5,0-8.8,3.8,2.4,5,2.4,8.8,0-2.4,3.8-2.4,5,0,8.8Z"/>
      <path class="cls-2" d="M1305.2,758.3c-3.8-2.4-5-2.4-8.8,0,2.4-3.8,2.4-5,0-8.8,3.8,2.4,5,2.4,8.8,0-2.4,3.8-2.4,5,0,8.8Z"/>
    </g>
    <g>
      <path class="cls-2" d="M1226.9,674.9c-4.4,1-5.2,1.8-6.2,6.2-1-4.4-1.8-5.2-6.2-6.2,4.4-1,5.2-1.8,6.2-6.2,1,4.4,1.8,5.2,6.2,6.2Z"/>
      <path class="cls-2" d="M1226.9,674.9c-4.4,1-5.2,1.8-6.2,6.2-1-4.4-1.8-5.2-6.2-6.2,4.4-1,5.2-1.8,6.2-6.2,1,4.4,1.8,5.2,6.2,6.2Z"/>
    </g>
    <g>
      <path class="cls-2" d="M570.9,774.1c5.2-6.3,5.2-7.1,0-13.4,6.3,5.2,7.1,5.2,13.4,0-5.2,6.3-5.2,7.1,0,13.4-6.3-5.2-7.1-5.2-13.4,0Z"/>
      <path class="cls-2" d="M570.9,774.1c5.2-6.3,5.2-7.1,0-13.4,6.3,5.2,7.1,5.2,13.4,0-5.2,6.3-5.2,7.1,0,13.4-6.3-5.2-7.1-5.2-13.4,0Z"/>
    </g>
    <g>
      <path class="cls-2" d="M737.1,816.2c-.7-8.1-1.4-8.7-9.5-9.5,8.1-.7,8.7-1.4,9.5-9.5,.7,8.1,1.4,8.7,9.5,9.5-8.1,.7-8.7,1.4-9.5,9.5Z"/>
      <path class="cls-2" d="M737.1,816.2c-.7-8.1-1.4-8.7-9.5-9.5,8.1-.7,8.7-1.4,9.5-9.5,.7,8.1,1.4,8.7,9.5,9.5-8.1,.7-8.7,1.4-9.5,9.5Z"/>
    </g>
    <g>
      <path class="cls-2" d="M688.4,850.2c-.7-8.1-1.4-8.7-9.5-9.5,8.1-.7,8.7-1.4,9.5-9.5,.7,8.1,1.4,8.7,9.5,9.5-8.1,.7-8.7,1.4-9.5,9.5Z"/>
      <path class="cls-2" d="M688.4,850.2c-.7-8.1-1.4-8.7-9.5-9.5,8.1-.7,8.7-1.4,9.5-9.5,.7,8.1,1.4,8.7,9.5,9.5-8.1,.7-8.7,1.4-9.5,9.5Z"/>
    </g>
    <g>
      <path class="cls-2" d="M475,780.1c-.9-9.7-1.6-10.4-11.3-11.3,9.7-.9,10.4-1.6,11.3-11.3,.9,9.7,1.6,10.4,11.3,11.3-9.7,.9-10.4,1.6-11.3,11.3Z"/>
      <path class="cls-2" d="M598.9,876.1c-.9-9.7-1.6-10.4-11.3-11.3,9.7-.9,10.4-1.6,11.3-11.3,.9,9.7,1.6,10.4,11.3,11.3-9.7,.9-10.4,1.6-11.3,11.3Z"/>
    </g>
    <g>
      <path class="cls-2" d="M950.5,859.5c-1-4.4-1.8-5.2-6.2-6.2,4.4-1,5.2-1.8,6.2-6.2,1,4.4,1.8,5.2,6.2,6.2-4.4,1-5.2,1.8-6.2,6.2Z"/>
      <path class="cls-2" d="M950.5,859.5c-1-4.4-1.8-5.2-6.2-6.2,4.4-1,5.2-1.8,6.2-6.2,1,4.4,1.8,5.2,6.2,6.2-4.4,1-5.2,1.8-6.2,6.2Z"/>
    </g>
    <g>
      <path class="cls-2" d="M1031.2,778.8c-1-4.4-1.8-5.2-6.2-6.2,4.4-1,5.2-1.8,6.2-6.2,1,4.4,1.8,5.2,6.2,6.2-4.4,1-5.2,1.8-6.2,6.2Z"/>
      <path class="cls-2" d="M1031.2,778.8c-1-4.4-1.8-5.2-6.2-6.2,4.4-1,5.2-1.8,6.2-6.2,1,4.4,1.8,5.2,6.2,6.2-4.4,1-5.2,1.8-6.2,6.2Z"/>
    </g>
    <g>
      <path class="cls-2" d="M1006.1,901.3c-1-4.4-1.8-5.2-6.2-6.2,4.4-1,5.2-1.8,6.2-6.2,1,4.4,1.8,5.2,6.2,6.2-4.4,1-5.2,1.8-6.2,6.2Z"/>
      <path class="cls-2" d="M1006.1,901.3c-1-4.4-1.8-5.2-6.2-6.2,4.4-1,5.2-1.8,6.2-6.2,1,4.4,1.8,5.2,6.2,6.2-4.4,1-5.2,1.8-6.2,6.2Z"/>
    </g>
    <g>
      <path class="cls-2" d="M1061.1,858.9c-1-4.4-1.8-5.2-6.2-6.2,4.4-1,5.2-1.8,6.2-6.2,1,4.4,1.8,5.2,6.2,6.2-4.4,1-5.2,1.8-6.2,6.2Z"/>
      <path class="cls-2" d="M1061.1,858.9c-1-4.4-1.8-5.2-6.2-6.2,4.4-1,5.2-1.8,6.2-6.2,1,4.4,1.8,5.2,6.2,6.2-4.4,1-5.2,1.8-6.2,6.2Z"/>
    </g>
    <g>
      <path class="cls-2" d="M710.3,895c-1-4.4-1.8-5.2-6.2-6.2,4.4-1,5.2-1.8,6.2-6.2,1,4.4,1.8,5.2,6.2,6.2-4.4,1-5.2,1.8-6.2,6.2Z"/>
      <path class="cls-2" d="M710.3,895c-1-4.4-1.8-5.2-6.2-6.2,4.4-1,5.2-1.8,6.2-6.2,1,4.4,1.8,5.2,6.2,6.2-4.4,1-5.2,1.8-6.2,6.2Z"/>
    </g>
    <g>
      <path class="cls-2" d="M652.2,811.3c-1-4.4-1.8-5.2-6.2-6.2,4.4-1,5.2-1.8,6.2-6.2,1,4.4,1.8,5.2,6.2,6.2-4.4,1-5.2,1.8-6.2,6.2Z"/>
      <path class="cls-2" d="M652.2,811.3c-1-4.4-1.8-5.2-6.2-6.2,4.4-1,5.2-1.8,6.2-6.2,1,4.4,1.8,5.2,6.2,6.2-4.4,1-5.2,1.8-6.2,6.2Z"/>
    </g>
    <g>
      <path class="cls-2" d="M529.7,817.5c-1-4.4-1.8-5.2-6.2-6.2,4.4-1,5.2-1.8,6.2-6.2,1,4.4,1.8,5.2,6.2,6.2-4.4,1-5.2,1.8-6.2,6.2Z"/>
      <path class="cls-2" d="M529.7,817.5c-1-4.4-1.8-5.2-6.2-6.2,4.4-1,5.2-1.8,6.2-6.2,1,4.4,1.8,5.2,6.2,6.2-4.4,1-5.2,1.8-6.2,6.2Z"/>
    </g>
    <g>
      <path class="cls-2" d="M831.7,902.4c-1-4.4-1.8-5.2-6.2-6.2,4.4-1,5.2-1.8,6.2-6.2,1,4.4,1.8,5.2,6.2,6.2-4.4,1-5.2,1.8-6.2,6.2Z"/>
      <path class="cls-2" d="M831.7,902.4c-1-4.4-1.8-5.2-6.2-6.2,4.4-1,5.2-1.8,6.2-6.2,1,4.4,1.8,5.2,6.2,6.2-4.4,1-5.2,1.8-6.2,6.2Z"/>
    </g>
    <g>
      <path class="cls-2" d="M487.7,238.9c6.3,5.2,7.1,5.2,13.4,0-5.2,6.3-5.2,7.1,0,13.4-6.3-5.2-7.1-5.2-13.4,0,5.2-6.3,5.2-7.1,0-13.4Z"/>
      <path class="cls-2" d="M487.7,238.9c6.3,5.2,7.1,5.2,13.4,0-5.2,6.3-5.2,7.1,0,13.4-6.3-5.2-7.1-5.2-13.4,0,5.2-6.3,5.2-7.1,0-13.4Z"/>
    </g>
    <g>
      <path class="cls-2" d="M397.5,556.1c8.1-.7,8.7-1.4,9.5-9.5,.7,8.1,1.4,8.7,9.5,9.5-8.1,.7-8.7,1.4-9.5,9.5-.7-8.1-1.4-8.7-9.5-9.5Z"/>
      <path class="cls-2" d="M373,432.8c8.1-.7,8.7-1.4,9.5-9.5,.7,8.1,1.4,8.7,9.5,9.5-8.1,.7-8.7,1.4-9.5,9.5-.7-8.1-1.4-8.7-9.5-9.5Z"/>
    </g>
    <g>
      <path class="cls-2" d="M411.7,356.4c8.1-.7,8.7-1.4,9.5-9.5,.7,8.1,1.4,8.7,9.5,9.5-8.1,.7-8.7,1.4-9.5,9.5-.7-8.1-1.4-8.7-9.5-9.5Z"/>
      <path class="cls-2" d="M411.7,356.4c8.1-.7,8.7-1.4,9.5-9.5,.7,8.1,1.4,8.7,9.5,9.5-8.1,.7-8.7,1.4-9.5,9.5-.7-8.1-1.4-8.7-9.5-9.5Z"/>
    </g>
    <g>
      <path class="cls-2" d="M303.7,598.3c8.1-.7,8.7-1.4,9.5-9.5,.7,8.1,1.4,8.7,9.5,9.5-8.1,.7-8.7,1.4-9.5,9.5-.7-8.1-1.4-8.7-9.5-9.5Z"/>
      <path class="cls-2" d="M303.7,598.3c8.1-.7,8.7-1.4,9.5-9.5,.7,8.1,1.4,8.7,9.5,9.5-8.1,.7-8.7,1.4-9.5,9.5-.7-8.1-1.4-8.7-9.5-9.5Z"/>
    </g>
    <g>
      <path class="cls-2" d="M306.7,507.9c8.1-.7,8.7-1.4,9.5-9.5,.7,8.1,1.4,8.7,9.5,9.5-8.1,.7-8.7,1.4-9.5,9.5-.7-8.1-1.4-8.7-9.5-9.5Z"/>
      <path class="cls-2" d="M306.7,507.9c8.1-.7,8.7-1.4,9.5-9.5,.7,8.1,1.4,8.7,9.5,9.5-8.1,.7-8.7,1.4-9.5,9.5-.7-8.1-1.4-8.7-9.5-9.5Z"/>
    </g>
    <g>
      <path class="cls-2" d="M332.9,387.2c6.3,5.2,7.1,5.2,13.4,0-5.2,6.3-5.2,7.1,0,13.4-6.3-5.2-7.1-5.2-13.4,0,5.2-6.3,5.2-7.1,0-13.4Z"/>
      <path class="cls-2" d="M332.9,387.2c6.3,5.2,7.1,5.2,13.4,0-5.2,6.3-5.2,7.1,0,13.4-6.3-5.2-7.1-5.2-13.4,0,5.2-6.3,5.2-7.1,0-13.4Z"/>
    </g>
    <g>
      <path class="cls-2" d="M266.2,449.9c6.3,5.2,7.1,5.2,13.4,0-5.2,6.3-5.2,7.1,0,13.4-6.3-5.2-7.1-5.2-13.4,0,5.2-6.3,5.2-7.1,0-13.4Z"/>
      <path class="cls-2" d="M266.2,449.9c6.3,5.2,7.1,5.2,13.4,0-5.2,6.3-5.2,7.1,0,13.4-6.3-5.2-7.1-5.2-13.4,0,5.2-6.3,5.2-7.1,0-13.4Z"/>
    </g>
    <g>
      <path class="cls-2" d="M318.7,212.7c8.1-.7,8.7-1.4,9.5-9.5,.7,8.1,1.4,8.7,9.5,9.5-8.1,.7-8.7,1.4-9.5,9.5-.7-8.1-1.4-8.7-9.5-9.5Z"/>
      <path class="cls-2" d="M318.7,212.7c8.1-.7,8.7-1.4,9.5-9.5,.7,8.1,1.4,8.7,9.5,9.5-8.1,.7-8.7,1.4-9.5,9.5-.7-8.1-1.4-8.7-9.5-9.5Z"/>
    </g>
    <g>
      <path class="cls-2" d="M285.5,136.3c9.7-.9,10.4-1.6,11.3-11.3,.9,9.7,1.6,10.4,11.3,11.3-9.7,.9-10.4,1.6-11.3,11.3-.9-9.7-1.6-10.4-11.3-11.3Z"/>
      <path class="cls-2" d="M285.5,136.3c9.7-.9,10.4-1.6,11.3-11.3,.9,9.7,1.6,10.4,11.3,11.3-9.7,.9-10.4,1.6-11.3,11.3-.9-9.7-1.6-10.4-11.3-11.3Z"/>
    </g>
    <g>
      <path class="cls-2" d="M481.7,143c9.7-.9,10.4-1.6,11.3-11.3,.9,9.7,1.6,10.4,11.3,11.3-9.7,.9-10.4,1.6-11.3,11.3-.9-9.7-1.6-10.4-11.3-11.3Z"/>
      <path class="cls-2" d="M481.7,143c9.7-.9,10.4-1.6,11.3-11.3,.9,9.7,1.6,10.4,11.3,11.3-9.7,.9-10.4,1.6-11.3,11.3-.9-9.7-1.6-10.4-11.3-11.3Z"/>
    </g>
    <g>
      <path class="cls-2" d="M463.7,527.7c9.7-.9,10.4-1.6,11.3-11.3,.9,9.7,1.6,10.4,11.3,11.3-9.7,.9-10.4,1.6-11.3,11.3-.9-9.7-1.6-10.4-11.3-11.3Z"/>
      <path class="cls-2" d="M463.7,527.7c9.7-.9,10.4-1.6,11.3-11.3,.9,9.7,1.6,10.4,11.3,11.3-9.7,.9-10.4,1.6-11.3,11.3-.9-9.7-1.6-10.4-11.3-11.3Z"/>
    </g>
    <g>
      <path class="cls-2" d="M240.5,528.4c9.7-.9,10.4-1.6,11.3-11.3,.9,9.7,1.6,10.4,11.3,11.3-9.7,.9-10.4,1.6-11.3,11.3-.9-9.7-1.6-10.4-11.3-11.3Z"/>
      <path class="cls-2" d="M240.5,528.4c9.7-.9,10.4-1.6,11.3-11.3,.9,9.7,1.6,10.4,11.3,11.3-9.7,.9-10.4,1.6-11.3,11.3-.9-9.7-1.6-10.4-11.3-11.3Z"/>
    </g>
    <g>
      <path class="cls-2" d="M449.1,474.9c14.1-1.3,15.1-2.3,16.4-16.4,1.3,14.1,2.3,15.1,16.4,16.4-14.1,1.3-15.1,2.3-16.4,16.4-1.3-14.1-2.3-15.1-16.4-16.4Z"/>
      <path class="cls-2" d="M802.4,777c14.1-1.3,15.1-2.3,16.4-16.4,1.3,14.1,2.3,15.1,16.4,16.4-14.1,1.3-15.1,2.3-16.4,16.4-1.3-14.1-2.3-15.1-16.4-16.4Z"/>
    </g>
    <g>
      <path class="cls-2" d="M402.3,618.5c4.4-1,5.2-1.8,6.2-6.2,1,4.4,1.8,5.2,6.2,6.2-4.4,1-5.2,1.8-6.2,6.2-1-4.4-1.8-5.2-6.2-6.2Z"/>
      <path class="cls-2" d="M402.3,618.5c4.4-1,5.2-1.8,6.2-6.2,1,4.4,1.8,5.2,6.2,6.2-4.4,1-5.2,1.8-6.2,6.2-1-4.4-1.8-5.2-6.2-6.2Z"/>
    </g>
    <g>
      <path class="cls-2" d="M483,699.2c4.4-1,5.2-1.8,6.2-6.2,1,4.4,1.8,5.2,6.2,6.2-4.4,1-5.2,1.8-6.2,6.2-1-4.4-1.8-5.2-6.2-6.2Z"/>
      <path class="cls-2" d="M483,699.2c4.4-1,5.2-1.8,6.2-6.2,1,4.4,1.8,5.2,6.2,6.2-4.4,1-5.2,1.8-6.2,6.2-1-4.4-1.8-5.2-6.2-6.2Z"/>
    </g>
    <g>
      <path class="cls-2" d="M360.5,674.1c4.4-1,5.2-1.8,6.2-6.2,1,4.4,1.8,5.2,6.2,6.2-4.4,1-5.2,1.8-6.2,6.2-1-4.4-1.8-5.2-6.2-6.2Z"/>
      <path class="cls-2" d="M360.5,674.1c4.4-1,5.2-1.8,6.2-6.2,1,4.4,1.8,5.2,6.2,6.2-4.4,1-5.2,1.8-6.2,6.2-1-4.4-1.8-5.2-6.2-6.2Z"/>
    </g>
    <g>
      <path class="cls-2" d="M402.9,729.1c4.4-1,5.2-1.8,6.2-6.2,1,4.4,1.8,5.2,6.2,6.2-4.4,1-5.2,1.8-6.2,6.2-1-4.4-1.8-5.2-6.2-6.2Z"/>
      <path class="cls-2" d="M402.9,729.1c4.4-1,5.2-1.8,6.2-6.2,1,4.4,1.8,5.2,6.2,6.2-4.4,1-5.2,1.8-6.2,6.2-1-4.4-1.8-5.2-6.2-6.2Z"/>
    </g>
    <g>
      <path class="cls-2" d="M570.1,652.9c-1-4.4-1.8-5.2-6.2-6.2,4.4-1,5.2-1.8,6.2-6.2,1,4.4,1.8,5.2,6.2,6.2-4.4,1-5.2,1.8-6.2,6.2Z"/>
      <path class="cls-2" d="M570.1,652.9c-1-4.4-1.8-5.2-6.2-6.2,4.4-1,5.2-1.8,6.2-6.2,1,4.4,1.8,5.2,6.2,6.2-4.4,1-5.2,1.8-6.2,6.2Z"/>
    </g>
    <g>
      <path class="cls-2" d="M599.9,733.1c-1-4.4-1.8-5.2-6.2-6.2,4.4-1,5.2-1.8,6.2-6.2,1,4.4,1.8,5.2,6.2,6.2-4.4,1-5.2,1.8-6.2,6.2Z"/>
      <path class="cls-2" d="M599.9,733.1c-1-4.4-1.8-5.2-6.2-6.2,4.4-1,5.2-1.8,6.2-6.2,1,4.4,1.8,5.2,6.2,6.2-4.4,1-5.2,1.8-6.2,6.2Z"/>
    </g>
    <g>
      <path class="cls-2" d="M719.2,542.3c-9.7,.9-10.4,1.6-11.3,11.3-.9-9.7-1.6-10.4-11.3-11.3,9.7-.9,10.4-1.6,11.3-11.3,.9,9.7,1.6,10.4,11.3,11.3Z"/>
      <path class="cls-2" d="M719.2,542.3c-9.7,.9-10.4,1.6-11.3,11.3-.9-9.7-1.6-10.4-11.3-11.3,9.7-.9,10.4-1.6,11.3-11.3,.9,9.7,1.6,10.4,11.3,11.3Z"/>
    </g>
    <g>
      <path class="cls-2" d="M754.4,587.5c5.2-6.3,5.2-7.1,0-13.4,6.3,5.2,7.1,5.2,13.4,0-5.2,6.3-5.2,7.1,0,13.4-6.3-5.2-7.1-5.2-13.4,0Z"/>
      <path class="cls-2" d="M754.4,587.5c5.2-6.3,5.2-7.1,0-13.4,6.3,5.2,7.1,5.2,13.4,0-5.2,6.3-5.2,7.1,0,13.4-6.3-5.2-7.1-5.2-13.4,0Z"/>
    </g>
    <path class="cls-2" d="M658.6,593.5c-.9-9.7-1.6-10.4-11.3-11.3,9.7-.9,10.4-1.6,11.3-11.3,.9,9.7,1.6,10.4,11.3,11.3-9.7,.9-10.4,1.6-11.3,11.3Z"/>
    <g>
      <path class="cls-2" d="M713.3,630.9c-1-4.4-1.8-5.2-6.2-6.2,4.4-1,5.2-1.8,6.2-6.2,1,4.4,1.8,5.2,6.2,6.2-4.4,1-5.2,1.8-6.2,6.2Z"/>
      <path class="cls-2" d="M713.3,630.9c-1-4.4-1.8-5.2-6.2-6.2,4.4-1,5.2-1.8,6.2-6.2,1,4.4,1.8,5.2,6.2,6.2-4.4,1-5.2,1.8-6.2,6.2Z"/>
    </g>
    <path class="cls-2" d="M663.4,512.6c8.1-.7,8.7-1.4,9.5-9.5,.7,8.1,1.4,8.7,9.5,9.5-8.1,.7-8.7,1.4-9.5,9.5-.7-8.1-1.4-8.7-9.5-9.5Z"/>
    <path class="cls-2" d="M663.4,512.6c8.1-.7,8.7-1.4,9.5-9.5,.7,8.1,1.4,8.7,9.5,9.5-8.1,.7-8.7,1.4-9.5,9.5-.7-8.1-1.4-8.7-9.5-9.5Z"/>
    <g>
      <path class="cls-2" d="M582.4,581.6c4.4-1,5.2-1.8,6.2-6.2,1,4.4,1.8,5.2,6.2,6.2-4.4,1-5.2,1.8-6.2,6.2-1-4.4-1.8-5.2-6.2-6.2Z"/>
      <path class="cls-2" d="M582.4,581.6c4.4-1,5.2-1.8,6.2-6.2,1,4.4,1.8,5.2,6.2,6.2-4.4,1-5.2,1.8-6.2,6.2-1-4.4-1.8-5.2-6.2-6.2Z"/>
    </g>
    <g>
      <path class="cls-2" d="M474.1,588.3c4.4-1,5.2-1.8,6.2-6.2,1,4.4,1.8,5.2,6.2,6.2-4.4,1-5.2,1.8-6.2,6.2-1-4.4-1.8-5.2-6.2-6.2Z"/>
      <path class="cls-2" d="M474.1,588.3c4.4-1,5.2-1.8,6.2-6.2,1,4.4,1.8,5.2,6.2,6.2-4.4,1-5.2,1.8-6.2,6.2-1-4.4-1.8-5.2-6.2-6.2Z"/>
    </g>
    <g>
      <path class="cls-2" d="M294.6,268.6c4.4-1,5.2-1.8,6.2-6.2,1,4.4,1.8,5.2,6.2,6.2-4.4,1-5.2,1.8-6.2,6.2-1-4.4-1.8-5.2-6.2-6.2Z"/>
      <path class="cls-2" d="M294.6,268.6c4.4-1,5.2-1.8,6.2-6.2,1,4.4,1.8,5.2,6.2,6.2-4.4,1-5.2,1.8-6.2,6.2-1-4.4-1.8-5.2-6.2-6.2Z"/>
    </g>
    <g>
      <path class="cls-2" d="M366.8,378.4c4.4-1,5.2-1.8,6.2-6.2,1,4.4,1.8,5.2,6.2,6.2-4.4,1-5.2,1.8-6.2,6.2-1-4.4-1.8-5.2-6.2-6.2Z"/>
      <path class="cls-2" d="M366.8,378.4c4.4-1,5.2-1.8,6.2-6.2,1,4.4,1.8,5.2,6.2,6.2-4.4,1-5.2,1.8-6.2,6.2-1-4.4-1.8-5.2-6.2-6.2Z"/>
    </g>
    <path class="cls-2" d="M442.8,264.1c4.4-1,5.2-1.8,6.2-6.2,1,4.4,1.8,5.2,6.2,6.2-4.4,1-5.2,1.8-6.2,6.2-1-4.4-1.8-5.2-6.2-6.2Z"/>
    <g>
      <path class="cls-2" d="M444.3,197.7c4.4-1,5.2-1.8,6.2-6.2,1,4.4,1.8,5.2,6.2,6.2-4.4,1-5.2,1.8-6.2,6.2-1-4.4-1.8-5.2-6.2-6.2Z"/>
      <path class="cls-2" d="M444.3,197.7c4.4-1,5.2-1.8,6.2-6.2,1,4.4,1.8,5.2,6.2,6.2-4.4,1-5.2,1.8-6.2,6.2-1-4.4-1.8-5.2-6.2-6.2Z"/>
    </g>
    <g>
      <path class="cls-2" d="M270.1,718.5c4.4-1,5.2-1.8,6.2-6.2,1,4.4,1.8,5.2,6.2,6.2-4.4,1-5.2,1.8-6.2,6.2-1-4.4-1.8-5.2-6.2-6.2Z"/>
      <path class="cls-2" d="M270.1,718.5c4.4-1,5.2-1.8,6.2-6.2,1,4.4,1.8,5.2,6.2,6.2-4.4,1-5.2,1.8-6.2,6.2-1-4.4-1.8-5.2-6.2-6.2Z"/>
    </g>
    <g>
      <path class="cls-2" d="M381.8,274.2c4.4-1,5.2-1.8,6.2-6.2,1,4.4,1.8,5.2,6.2,6.2-4.4,1-5.2,1.8-6.2,6.2-1-4.4-1.8-5.2-6.2-6.2Z"/>
      <path class="cls-2" d="M381.8,274.2c4.4-1,5.2-1.8,6.2-6.2,1,4.4,1.8,5.2,6.2,6.2-4.4,1-5.2,1.8-6.2,6.2-1-4.4-1.8-5.2-6.2-6.2Z"/>
    </g>
    <g>
      <path class="cls-2" d="M359.4,499.7c4.4-1,5.2-1.8,6.2-6.2,1,4.4,1.8,5.2,6.2,6.2-4.4,1-5.2,1.8-6.2,6.2-1-4.4-1.8-5.2-6.2-6.2Z"/>
      <path class="cls-2" d="M359.4,499.7c4.4-1,5.2-1.8,6.2-6.2,1,4.4,1.8,5.2,6.2,6.2-4.4,1-5.2,1.8-6.2,6.2-1-4.4-1.8-5.2-6.2-6.2Z"/>
    </g>
    <g>
      <path class="cls-2" d="M275.4,69.1c8.1-.7,8.7-1.4,9.5-9.5,.7,8.1,1.4,8.7,9.5,9.5-8.1,.7-8.7,1.4-9.5,9.5-.7-8.1-1.4-8.7-9.5-9.5Z"/>
      <path class="cls-2" d="M275.4,69.1c8.1-.7,8.7-1.4,9.5-9.5,.7,8.1,1.4,8.7,9.5,9.5-8.1,.7-8.7,1.4-9.5,9.5-.7-8.1-1.4-8.7-9.5-9.5Z"/>
    </g>
    <g>
      <path class="cls-2" d="M322.3,33.1c7.4,3.5,8.2,3.3,13-3.3-3.5,7.4-3.3,8.2,3.3,13-7.4-3.5-8.2-3.3-13,3.3,3.5-7.4,3.3-8.2-3.3-13Z"/>
      <path class="cls-2" d="M322.3,33.1c7.4,3.5,8.2,3.3,13-3.3-3.5,7.4-3.3,8.2,3.3,13-7.4-3.5-8.2-3.3-13,3.3,3.5-7.4,3.3-8.2-3.3-13Z"/>
    </g>
    <g>
      <path class="cls-2" d="M389.3,183.2c6.3,5.2,7.1,5.2,13.4,0-5.2,6.3-5.2,7.1,0,13.4-6.3-5.2-7.1-5.2-13.4,0,5.2-6.3,5.2-7.1,0-13.4Z"/>
      <path class="cls-2" d="M389.3,183.2c6.3,5.2,7.1,5.2,13.4,0-5.2,6.3-5.2,7.1,0,13.4-6.3-5.2-7.1-5.2-13.4,0,5.2-6.3,5.2-7.1,0-13.4Z"/>
    </g>
    <g>
      <path class="cls-2" d="M337.6,150.5c9.7-.9,10.4-1.6,11.3-11.3,.9,9.7,1.6,10.4,11.3,11.3-9.7,.9-10.4,1.6-11.3,11.3-.9-9.7-1.6-10.4-11.3-11.3Z"/>
      <path class="cls-2" d="M337.6,150.5c9.7-.9,10.4-1.6,11.3-11.3,.9,9.7,1.6,10.4,11.3,11.3-9.7,.9-10.4,1.6-11.3,11.3-.9-9.7-1.6-10.4-11.3-11.3Z"/>
    </g>
    <g>
      <path class="cls-2" d="M330,334.7c9.7-.9,10.4-1.6,11.3-11.3,.9,9.7,1.6,10.4,11.3,11.3-9.7,.9-10.4,1.6-11.3,11.3-.9-9.7-1.6-10.4-11.3-11.3Z"/>
      <path class="cls-2" d="M330,334.7c9.7-.9,10.4-1.6,11.3-11.3,.9,9.7,1.6,10.4,11.3,11.3-9.7,.9-10.4,1.6-11.3,11.3-.9-9.7-1.6-10.4-11.3-11.3Z"/>
    </g>
    <g>
      <path class="cls-2" d="M603.4,54.3c4.4-1,5.2-1.8,6.2-6.2,1,4.4,1.8,5.2,6.2,6.2-4.4,1-5.2,1.8-6.2,6.2-1-4.4-1.8-5.2-6.2-6.2Z"/>
      <path class="cls-2" d="M603.4,54.3c4.4-1,5.2-1.8,6.2-6.2,1,4.4,1.8,5.2,6.2,6.2-4.4,1-5.2,1.8-6.2,6.2-1-4.4-1.8-5.2-6.2-6.2Z"/>
    </g>
    <g>
      <path class="cls-2" d="M480.9,29.2c4.4-1,5.2-1.8,6.2-6.2,1,4.4,1.8,5.2,6.2,6.2-4.4,1-5.2,1.8-6.2,6.2-1-4.4-1.8-5.2-6.2-6.2Z"/>
      <path class="cls-2" d="M480.9,29.2c4.4-1,5.2-1.8,6.2-6.2,1,4.4,1.8,5.2,6.2,6.2-4.4,1-5.2,1.8-6.2,6.2-1-4.4-1.8-5.2-6.2-6.2Z"/>
    </g>
    <g>
      <path class="cls-2" d="M523.3,84.1c4.4-1,5.2-1.8,6.2-6.2,1,4.4,1.8,5.2,6.2,6.2-4.4,1-5.2,1.8-6.2,6.2-1-4.4-1.8-5.2-6.2-6.2Z"/>
      <path class="cls-2" d="M523.3,84.1c4.4-1,5.2-1.8,6.2-6.2,1,4.4,1.8,5.2,6.2,6.2-4.4,1-5.2,1.8-6.2,6.2-1-4.4-1.8-5.2-6.2-6.2Z"/>
    </g>
    <g>
      <path class="cls-2" d="M390.5,73.6c4.4-1,5.2-1.8,6.2-6.2,1,4.4,1.8,5.2,6.2,6.2-4.4,1-5.2,1.8-6.2,6.2-1-4.4-1.8-5.2-6.2-6.2Z"/>
      <path class="cls-2" d="M390.5,73.6c4.4-1,5.2-1.8,6.2-6.2,1,4.4,1.8,5.2,6.2,6.2-4.4,1-5.2,1.8-6.2,6.2-1-4.4-1.8-5.2-6.2-6.2Z"/>
    </g>
    <g>
      <path class="cls-2" d="M758.7,30.3c8.1-.7,8.7-1.4,9.5-9.5,.7,8.1,1.4,8.7,9.5,9.5-8.1,.7-8.7,1.4-9.5,9.5-.7-8.1-1.4-8.7-9.5-9.5Z"/>
      <path class="cls-2" d="M758.7,30.3c8.1-.7,8.7-1.4,9.5-9.5,.7,8.1,1.4,8.7,9.5,9.5-8.1,.7-8.7,1.4-9.5,9.5-.7-8.1-1.4-8.7-9.5-9.5Z"/>
    </g>
    <g>
      <path class="cls-2" d="M556.3,9.5c8.1-.7,8.7-1.4,9.5-9.5,.7,8.1,1.4,8.7,9.5,9.5-8.1,.7-8.7,1.4-9.5,9.5-.7-8.1-1.4-8.7-9.5-9.5Z"/>
      <path class="cls-2" d="M556.3,9.5c8.1-.7,8.7-1.4,9.5-9.5,.7,8.1,1.4,8.7,9.5,9.5-8.1,.7-8.7,1.4-9.5,9.5-.7-8.1-1.4-8.7-9.5-9.5Z"/>
    </g>
    <g>
      <path class="cls-2" d="M692.4,50.8c9.7-.9,10.4-1.6,11.3-11.3,.9,9.7,1.6,10.4,11.3,11.3-9.7,.9-10.4,1.6-11.3,11.3-.9-9.7-1.6-10.4-11.3-11.3Z"/>
      <path class="cls-2" d="M692.4,50.8c9.7-.9,10.4-1.6,11.3-11.3,.9,9.7,1.6,10.4,11.3,11.3-9.7,.9-10.4,1.6-11.3,11.3-.9-9.7-1.6-10.4-11.3-11.3Z"/>
    </g>
    <g>
      <path class="cls-2" d="M1086.7,15.5c4.4-1,5.2-1.8,6.2-6.2,1,4.4,1.8,5.2,6.2,6.2-4.4,1-5.2,1.8-6.2,6.2-1-4.4-1.8-5.2-6.2-6.2Z"/>
      <path class="cls-2" d="M1086.7,15.5c4.4-1,5.2-1.8,6.2-6.2,1,4.4,1.8,5.2,6.2,6.2-4.4,1-5.2,1.8-6.2,6.2-1-4.4-1.8-5.2-6.2-6.2Z"/>
    </g>
    <g>
      <path class="cls-2" d="M1394.2,597c-6.3,5.2-7.1,5.2-13.4,0,5.2,6.3,5.2,7.1,0,13.4,6.3-5.2,7.1-5.2,13.4,0-5.2-6.3-5.2-7.1,0-13.4Z"/>
      <path class="cls-2" d="M1394.2,597c-6.3,5.2-7.1,5.2-13.4,0,5.2,6.3,5.2,7.1,0,13.4,6.3-5.2,7.1-5.2,13.4,0-5.2-6.3-5.2-7.1,0-13.4Z"/>
    </g>
    <g>
      <path class="cls-2" d="M1436.3,763.3c-8.1-.7-8.7-1.4-9.5-9.5-.7,8.1-1.4,8.7-9.5,9.5,8.1,.7,8.7,1.4,9.5,9.5,.7-8.1,1.4-8.7,9.5-9.5Z"/>
      <path class="cls-2" d="M1436.3,763.3c-8.1-.7-8.7-1.4-9.5-9.5-.7,8.1-1.4,8.7-9.5,9.5,8.1,.7,8.7,1.4,9.5,9.5,.7-8.1,1.4-8.7,9.5-9.5Z"/>
    </g>
    <g>
      <path class="cls-2" d="M1470.2,714.5c-8.1-.7-8.7-1.4-9.5-9.5-.7,8.1-1.4,8.7-9.5,9.5,8.1,.7,8.7,1.4,9.5,9.5,.7-8.1,1.4-8.7,9.5-9.5Z"/>
      <path class="cls-2" d="M1470.2,714.5c-8.1-.7-8.7-1.4-9.5-9.5-.7,8.1-1.4,8.7-9.5,9.5,8.1,.7,8.7,1.4,9.5,9.5,.7-8.1,1.4-8.7,9.5-9.5Z"/>
    </g>
    <g>
      <path class="cls-2" d="M1544,769.6c-8.1-.7-8.7-1.4-9.5-9.5-.7,8.1-1.4,8.7-9.5,9.5,8.1,.7,8.7,1.4,9.5,9.5,.7-8.1,1.4-8.7,9.5-9.5Z"/>
      <path class="cls-2" d="M1544,769.6c-8.1-.7-8.7-1.4-9.5-9.5-.7,8.1-1.4,8.7-9.5,9.5,8.1,.7,8.7,1.4,9.5,9.5,.7-8.1,1.4-8.7,9.5-9.5Z"/>
    </g>
    <g>
      <path class="cls-2" d="M1465,620.9c-9.7-.9-10.4-1.6-11.3-11.3-.9,9.7-1.6,10.4-11.3,11.3,9.7,.9,10.4,1.6,11.3,11.3,.9-9.7,1.6-10.4,11.3-11.3Z"/>
      <path class="cls-2" d="M1465,620.9c-9.7-.9-10.4-1.6-11.3-11.3-.9,9.7-1.6,10.4-11.3,11.3,9.7,.9,10.4,1.6,11.3,11.3,.9-9.7,1.6-10.4,11.3-11.3Z"/>
    </g>
    <g>
      <path class="cls-2" d="M1400.2,501.1c-9.7-.9-10.4-1.6-11.3-11.3-.9,9.7-1.6,10.4-11.3,11.3,9.7,.9,10.4,1.6,11.3,11.3,.9-9.7,1.6-10.4,11.3-11.3Z"/>
      <path class="cls-2" d="M1400.2,501.1c-9.7-.9-10.4-1.6-11.3-11.3-.9,9.7-1.6,10.4-11.3,11.3,9.7,.9,10.4,1.6,11.3,11.3,.9-9.7,1.6-10.4,11.3-11.3Z"/>
    </g>
    <path class="cls-2" d="M1348.3,768.1c-8.1-.7-8.7-1.4-9.5-9.5-.7,8.1-1.4,8.7-9.5,9.5,8.1,.7,8.7,1.4,9.5,9.5,.7-8.1,1.4-8.7,9.5-9.5Z"/>
    <path class="cls-2" d="M1348.3,768.1c-8.1-.7-8.7-1.4-9.5-9.5-.7,8.1-1.4,8.7-9.5,9.5,8.1,.7,8.7,1.4,9.5,9.5,.7-8.1,1.4-8.7,9.5-9.5Z"/>
    <g>
      <path class="cls-2" d="M1425.6,845.9c-4.4-1-5.2-1.8-6.2-6.2-1,4.4-1.8,5.2-6.2,6.2,4.4,1,5.2,1.8,6.2,6.2,1-4.4,1.8-5.2,6.2-6.2Z"/>
      <path class="cls-2" d="M1425.6,845.9c-4.4-1-5.2-1.8-6.2-6.2-1,4.4-1.8,5.2-6.2,6.2,4.4,1,5.2,1.8,6.2,6.2,1-4.4,1.8-5.2,6.2-6.2Z"/>
    </g>
    <g>
      <path class="cls-2" d="M1366.2,850.1c-4.4-1-5.2-1.8-6.2-6.2-1,4.4-1.8,5.2-6.2,6.2,4.4,1,5.2,1.8,6.2,6.2,1-4.4,1.8-5.2,6.2-6.2Z"/>
      <path class="cls-2" d="M1366.2,850.1c-4.4-1-5.2-1.8-6.2-6.2-1,4.4-1.8,5.2-6.2,6.2,4.4,1,5.2,1.8,6.2,6.2,1-4.4,1.8-5.2,6.2-6.2Z"/>
    </g>
    <g>
      <path class="cls-2" d="M1587.3,626.7c-4.4-1-5.2-1.8-6.2-6.2-1,4.4-1.8,5.2-6.2,6.2,4.4,1,5.2,1.8,6.2,6.2,1-4.4,1.8-5.2,6.2-6.2Z"/>
      <path class="cls-2" d="M1587.3,626.7c-4.4-1-5.2-1.8-6.2-6.2-1,4.4-1.8,5.2-6.2,6.2,4.4,1,5.2,1.8,6.2,6.2,1-4.4,1.8-5.2,6.2-6.2Z"/>
    </g>
    <g>
      <path class="cls-2" d="M1515.1,736.5c-4.4-1-5.2-1.8-6.2-6.2-1,4.4-1.8,5.2-6.2,6.2,4.4,1,5.2,1.8,6.2,6.2,1-4.4,1.8-5.2,6.2-6.2Z"/>
      <path class="cls-2" d="M1515.1,736.5c-4.4-1-5.2-1.8-6.2-6.2-1,4.4-1.8,5.2-6.2,6.2,4.4,1,5.2,1.8,6.2,6.2,1-4.4,1.8-5.2,6.2-6.2Z"/>
    </g>
    <g>
      <path class="cls-2" d="M1431.3,678.4c-4.4-1-5.2-1.8-6.2-6.2-1,4.4-1.8,5.2-6.2,6.2,4.4,1,5.2,1.8,6.2,6.2,1-4.4,1.8-5.2,6.2-6.2Z"/>
      <path class="cls-2" d="M1431.3,678.4c-4.4-1-5.2-1.8-6.2-6.2-1,4.4-1.8,5.2-6.2,6.2,4.4,1,5.2,1.8,6.2,6.2,1-4.4,1.8-5.2,6.2-6.2Z"/>
    </g>
    <g>
      <path class="cls-2" d="M1437.6,555.8c-4.4-1-5.2-1.8-6.2-6.2-1,4.4-1.8,5.2-6.2,6.2,4.4,1,5.2,1.8,6.2,6.2,1-4.4,1.8-5.2,6.2-6.2Z"/>
      <path class="cls-2" d="M1437.6,555.8c-4.4-1-5.2-1.8-6.2-6.2-1,4.4-1.8,5.2-6.2,6.2,4.4,1,5.2,1.8,6.2,6.2,1-4.4,1.8-5.2,6.2-6.2Z"/>
    </g>
    <g>
      <path class="cls-2" d="M1577.6,889.7c-4.4-1-5.2-1.8-6.2-6.2-1,4.4-1.8,5.2-6.2,6.2,4.4,1,5.2,1.8,6.2,6.2,1-4.4,1.8-5.2,6.2-6.2Z"/>
      <path class="cls-2" d="M1577.6,889.7c-4.4-1-5.2-1.8-6.2-6.2-1,4.4-1.8,5.2-6.2,6.2,4.4,1,5.2,1.8,6.2,6.2,1-4.4,1.8-5.2,6.2-6.2Z"/>
    </g>
    <g>
      <path class="cls-2" d="M1566.7,595c-3.8,2.4-5,2.4-8.8,0,2.4,3.8,2.4,5,0,8.8,3.8-2.4,5-2.4,8.8,0-2.4-3.8-2.4-5,0-8.8Z"/>
      <path class="cls-2" d="M1566.7,595c-3.8,2.4-5,2.4-8.8,0,2.4,3.8,2.4,5,0,8.8,3.8-2.4,5-2.4,8.8,0-2.4-3.8-2.4-5,0-8.8Z"/>
    </g>
    <g>
      <path class="cls-2" d="M1522.5,857.9c-4.4-1-5.2-1.8-6.2-6.2-1,4.4-1.8,5.2-6.2,6.2,4.4,1,5.2,1.8,6.2,6.2,1-4.4,1.8-5.2,6.2-6.2Z"/>
      <path class="cls-2" d="M1522.5,857.9c-4.4-1-5.2-1.8-6.2-6.2-1,4.4-1.8,5.2-6.2,6.2,4.4,1,5.2,1.8,6.2,6.2,1-4.4,1.8-5.2,6.2-6.2Z"/>
    </g>
    <g>
      <path class="cls-2" d="M1529.8,236.8c-6.3,5.2-7.1,5.2-13.4,0,5.2,6.3,5.2,7.1,0,13.4,6.3-5.2,7.1-5.2,13.4,0-5.2-6.3-5.2-7.1,0-13.4Z"/>
      <path class="cls-2" d="M1529.8,236.8c-6.3,5.2-7.1,5.2-13.4,0,5.2,6.3,5.2,7.1,0,13.4,6.3-5.2,7.1-5.2,13.4,0-5.2-6.3-5.2-7.1,0-13.4Z"/>
    </g>
    <g>
      <path class="cls-2" d="M1404.9,136.4c-8.1-.7-8.7-1.4-9.5-9.5-.7,8.1-1.4,8.7-9.5,9.5,8.1,.7,8.7,1.4,9.5,9.5,.7-8.1,1.4-8.7,9.5-9.5Z"/>
      <path class="cls-2" d="M1404.9,136.4c-8.1-.7-8.7-1.4-9.5-9.5-.7,8.1-1.4,8.7-9.5,9.5,8.1,.7,8.7,1.4,9.5,9.5,.7-8.1,1.4-8.7,9.5-9.5Z"/>
    </g>
    <g>
      <path class="cls-2" d="M1438.9,87.6c-8.1-.7-8.7-1.4-9.5-9.5-.7,8.1-1.4,8.7-9.5,9.5,8.1,.7,8.7,1.4,9.5,9.5,.7-8.1,1.4-8.7,9.5-9.5Z"/>
      <path class="cls-2" d="M1438.9,87.6c-8.1-.7-8.7-1.4-9.5-9.5-.7,8.1-1.4,8.7-9.5,9.5,8.1,.7,8.7,1.4,9.5,9.5,.7-8.1,1.4-8.7,9.5-9.5Z"/>
    </g>
    <g>
      <path class="cls-2" d="M1546.8,329.6c-8.1-.7-8.7-1.4-9.5-9.5-.7,8.1-1.4,8.7-9.5,9.5,8.1,.7,8.7,1.4,9.5,9.5,.7-8.1,1.4-8.7,9.5-9.5Z"/>
      <path class="cls-2" d="M1546.8,329.6c-8.1-.7-8.7-1.4-9.5-9.5-.7,8.1-1.4,8.7-9.5,9.5,8.1,.7,8.7,1.4,9.5,9.5,.7-8.1,1.4-8.7,9.5-9.5Z"/>
    </g>
    <g>
      <path class="cls-2" d="M1521.2,534.8c-8.1-.7-8.7-1.4-9.5-9.5-.7,8.1-1.4,8.7-9.5,9.5,8.1,.7,8.7,1.4,9.5,9.5,.7-8.1,1.4-8.7,9.5-9.5Z"/>
      <path class="cls-2" d="M1521.2,534.8c-8.1-.7-8.7-1.4-9.5-9.5-.7,8.1-1.4,8.7-9.5,9.5,8.1,.7,8.7,1.4,9.5,9.5,.7-8.1,1.4-8.7,9.5-9.5Z"/>
    </g>
    <g>
      <path class="cls-2" d="M1561.7,476.8c-6.3,5.2-7.1,5.2-13.4,0,5.2,6.3,5.2,7.1,0,13.4,6.3-5.2,7.1-5.2,13.4,0-5.2-6.3-5.2-7.1,0-13.4Z"/>
      <path class="cls-2" d="M1561.7,476.8c-6.3,5.2-7.1,5.2-13.4,0,5.2,6.3,5.2,7.1,0,13.4,6.3-5.2,7.1-5.2,13.4,0-5.2-6.3-5.2-7.1,0-13.4Z"/>
    </g>
    <g>
      <path class="cls-2" d="M1467.8,173.5c-9.7-.9-10.4-1.6-11.3-11.3-.9,9.7-1.6,10.4-11.3,11.3,9.7,.9,10.4,1.6,11.3,11.3,.9-9.7,1.6-10.4,11.3-11.3Z"/>
      <path class="cls-2" d="M1467.8,173.5c-9.7-.9-10.4-1.6-11.3-11.3-.9,9.7-1.6,10.4-11.3,11.3,9.7,.9,10.4,1.6,11.3,11.3,.9-9.7,1.6-10.4,11.3-11.3Z"/>
    </g>
    <g>
      <path class="cls-2" d="M1587.4,555.3c-9.7-.9-10.4-1.6-11.3-11.3-.9,9.7-1.6,10.4-11.3,11.3,9.7,.9,10.4,1.6,11.3,11.3,.9-9.7,1.6-10.4,11.3-11.3Z"/>
      <path class="cls-2" d="M1587.4,555.3c-9.7-.9-10.4-1.6-11.3-11.3-.9,9.7-1.6,10.4-11.3,11.3,9.7,.9,10.4,1.6,11.3,11.3,.9-9.7,1.6-10.4,11.3-11.3Z"/>
    </g>
    <g>
      <path class="cls-2" d="M1448.2,349.8c-4.4-1-5.2-1.8-6.2-6.2-1,4.4-1.8,5.2-6.2,6.2,4.4,1,5.2,1.8,6.2,6.2,1-4.4,1.8-5.2,6.2-6.2Z"/>
      <path class="cls-2" d="M1448.2,349.8c-4.4-1-5.2-1.8-6.2-6.2-1,4.4-1.8,5.2-6.2,6.2,4.4,1,5.2,1.8,6.2,6.2,1-4.4,1.8-5.2,6.2-6.2Z"/>
    </g>
    <g>
      <path class="cls-2" d="M1367.5,430.5c-4.4-1-5.2-1.8-6.2-6.2-1,4.4-1.8,5.2-6.2,6.2,4.4,1,5.2,1.8,6.2,6.2,1-4.4,1.8-5.2,6.2-6.2Z"/>
      <path class="cls-2" d="M1367.5,430.5c-4.4-1-5.2-1.8-6.2-6.2-1,4.4-1.8,5.2-6.2,6.2,4.4,1,5.2,1.8,6.2,6.2,1-4.4,1.8-5.2,6.2-6.2Z"/>
    </g>
    <g>
      <path class="cls-2" d="M1490,405.4c-4.4-1-5.2-1.8-6.2-6.2-1,4.4-1.8,5.2-6.2,6.2,4.4,1,5.2,1.8,6.2,6.2,1-4.4,1.8-5.2,6.2-6.2Z"/>
      <path class="cls-2" d="M1490,405.4c-4.4-1-5.2-1.8-6.2-6.2-1,4.4-1.8,5.2-6.2,6.2,4.4,1,5.2,1.8,6.2,6.2,1-4.4,1.8-5.2,6.2-6.2Z"/>
    </g>
    <g>
      <path class="cls-2" d="M1447.6,460.3c-4.4-1-5.2-1.8-6.2-6.2-1,4.4-1.8,5.2-6.2,6.2,4.4,1,5.2,1.8,6.2,6.2,1-4.4,1.8-5.2,6.2-6.2Z"/>
      <path class="cls-2" d="M1447.6,460.3c-4.4-1-5.2-1.8-6.2-6.2-1,4.4-1.8,5.2-6.2,6.2,4.4,1,5.2,1.8,6.2,6.2,1-4.4,1.8-5.2,6.2-6.2Z"/>
    </g>
    <g>
      <path class="cls-2" d="M1376.4,319.6c-4.4-1-5.2-1.8-6.2-6.2-1,4.4-1.8,5.2-6.2,6.2,4.4,1,5.2,1.8,6.2,6.2,1-4.4,1.8-5.2,6.2-6.2Z"/>
      <path class="cls-2" d="M1376.4,319.6c-4.4-1-5.2-1.8-6.2-6.2-1,4.4-1.8,5.2-6.2,6.2,4.4,1,5.2,1.8,6.2,6.2,1-4.4,1.8-5.2,6.2-6.2Z"/>
    </g>
    <g>
      <path class="cls-2" d="M1415.8,268.8c-4.4-1-5.2-1.8-6.2-6.2-1,4.4-1.8,5.2-6.2,6.2,4.4,1,5.2,1.8,6.2,6.2,1-4.4,1.8-5.2,6.2-6.2Z"/>
      <path class="cls-2" d="M1415.8,268.8c-4.4-1-5.2-1.8-6.2-6.2-1,4.4-1.8,5.2-6.2,6.2,4.4,1,5.2,1.8,6.2,6.2,1-4.4,1.8-5.2,6.2-6.2Z"/>
    </g>
    <g>
      <path class="cls-2" d="M1483.8,109.6c-4.4-1-5.2-1.8-6.2-6.2-1,4.4-1.8,5.2-6.2,6.2,4.4,1,5.2,1.8,6.2,6.2,1-4.4,1.8-5.2,6.2-6.2Z"/>
      <path class="cls-2" d="M1483.8,109.6c-4.4-1-5.2-1.8-6.2-6.2-1,4.4-1.8,5.2-6.2,6.2,4.4,1,5.2,1.8,6.2,6.2,1-4.4,1.8-5.2,6.2-6.2Z"/>
    </g>
    <g>
      <path class="cls-2" d="M1400,51.5c-4.4-1-5.2-1.8-6.2-6.2-1,4.4-1.8,5.2-6.2,6.2,4.4,1,5.2,1.8,6.2,6.2,1-4.4,1.8-5.2,6.2-6.2Z"/>
      <path class="cls-2" d="M1400,51.5c-4.4-1-5.2-1.8-6.2-6.2-1,4.4-1.8,5.2-6.2,6.2,4.4,1,5.2,1.8,6.2,6.2,1-4.4,1.8-5.2,6.2-6.2Z"/>
    </g>
    <g>
      <path class="cls-2" d="M1580.5,449.8c-4.4-1-5.2-1.8-6.2-6.2-1,4.4-1.8,5.2-6.2,6.2,4.4,1,5.2,1.8,6.2,6.2,1-4.4,1.8-5.2,6.2-6.2Z"/>
      <path class="cls-2" d="M1580.5,449.8c-4.4-1-5.2-1.8-6.2-6.2-1,4.4-1.8,5.2-6.2,6.2,4.4,1,5.2,1.8,6.2,6.2,1-4.4,1.8-5.2,6.2-6.2Z"/>
    </g>
    <g>
      <path class="cls-2" d="M1491,258.6c-4.4-1-5.2-1.8-6.2-6.2-1,4.4-1.8,5.2-6.2,6.2,4.4,1,5.2,1.8,6.2,6.2,1-4.4,1.8-5.2,6.2-6.2Z"/>
      <path class="cls-2" d="M1491,258.6c-4.4-1-5.2-1.8-6.2-6.2-1,4.4-1.8,5.2-6.2,6.2,4.4,1,5.2,1.8,6.2,6.2,1-4.4,1.8-5.2,6.2-6.2Z"/>
    </g>
    <g>
      <path class="cls-2" d="M1569.5,147.6c-3.8,2.4-5,2.4-8.8,0,2.4,3.8,2.4,5,0,8.8,3.8-2.4,5-2.4,8.8,0-2.4-3.8-2.4-5,0-8.8Z"/>
      <path class="cls-2" d="M1569.5,147.6c-3.8,2.4-5,2.4-8.8,0,2.4,3.8,2.4,5,0,8.8,3.8-2.4,5-2.4,8.8,0-2.4-3.8-2.4-5,0-8.8Z"/>
    </g>
    <g>
      <path class="cls-2" d="M1491.2,231c-4.4-1-5.2-1.8-6.2-6.2-1,4.4-1.8,5.2-6.2,6.2,4.4,1,5.2,1.8,6.2,6.2,1-4.4,1.8-5.2,6.2-6.2Z"/>
      <path class="cls-2" d="M1491.2,231c-4.4-1-5.2-1.8-6.2-6.2-1,4.4-1.8,5.2-6.2,6.2,4.4,1,5.2,1.8,6.2,6.2,1-4.4,1.8-5.2,6.2-6.2Z"/>
    </g>
    <path class="cls-2" d="M1325.4,43.7c-.7,8.1-1.4,8.7-9.5,9.5,8.1,.7,8.7,1.4,9.5,9.5,.7-8.1,1.4-8.7,9.5-9.5-8.1-.7-8.7-1.4-9.5-9.5Z"/>
    <path class="cls-2" d="M1325.4,43.7c-.7,8.1-1.4,8.7-9.5,9.5,8.1,.7,8.7,1.4,9.5,9.5,.7-8.1,1.4-8.7,9.5-9.5-8.1-.7-8.7-1.4-9.5-9.5Z"/>
    <g>
      <path class="cls-2" d="M1351,890.4c4.4,1,5.2,1.8,6.2,6.2,1-4.4,1.8-5.2,6.2-6.2-4.4-1-5.2-1.8-6.2-6.2-1,4.4-1.8,5.2-6.2,6.2Z"/>
      <path class="cls-2" d="M1351,890.4c4.4,1,5.2,1.8,6.2,6.2,1-4.4,1.8-5.2,6.2-6.2-4.4-1-5.2-1.8-6.2-6.2-1,4.4-1.8,5.2-6.2,6.2Z"/>
    </g>
    <g>
      <path class="cls-2" d="M193.2,575.2c6.3,5.2,7.1,5.2,13.4,0-5.2,6.3-5.2,7.1,0,13.4-6.3-5.2-7.1-5.2-13.4,0,5.2-6.3,5.2-7.1,0-13.4Z"/>
      <path class="cls-2" d="M193.2,575.2c6.3,5.2,7.1,5.2,13.4,0-5.2,6.3-5.2,7.1,0,13.4-6.3-5.2-7.1-5.2-13.4,0,5.2-6.3,5.2-7.1,0-13.4Z"/>
    </g>
    <g>
      <path class="cls-2" d="M151.1,741.5c8.1-.7,8.7-1.4,9.5-9.5,.7,8.1,1.4,8.7,9.5,9.5-8.1,.7-8.7,1.4-9.5,9.5-.7-8.1-1.4-8.7-9.5-9.5Z"/>
      <path class="cls-2" d="M151.1,741.5c8.1-.7,8.7-1.4,9.5-9.5,.7,8.1,1.4,8.7,9.5,9.5-8.1,.7-8.7,1.4-9.5,9.5-.7-8.1-1.4-8.7-9.5-9.5Z"/>
    </g>
    <g>
      <path class="cls-2" d="M117.2,692.7c8.1-.7,8.7-1.4,9.5-9.5,.7,8.1,1.4,8.7,9.5,9.5-8.1,.7-8.7,1.4-9.5,9.5-.7-8.1-1.4-8.7-9.5-9.5Z"/>
      <path class="cls-2" d="M117.2,692.7c8.1-.7,8.7-1.4,9.5-9.5,.7,8.1,1.4,8.7,9.5,9.5-8.1,.7-8.7,1.4-9.5,9.5-.7-8.1-1.4-8.7-9.5-9.5Z"/>
    </g>
    <g>
      <path class="cls-2" d="M43.4,747.8c8.1-.7,8.7-1.4,9.5-9.5,.7,8.1,1.4,8.7,9.5,9.5-8.1,.7-8.7,1.4-9.5,9.5-.7-8.1-1.4-8.7-9.5-9.5Z"/>
      <path class="cls-2" d="M43.4,747.8c8.1-.7,8.7-1.4,9.5-9.5,.7,8.1,1.4,8.7,9.5,9.5-8.1,.7-8.7,1.4-9.5,9.5-.7-8.1-1.4-8.7-9.5-9.5Z"/>
    </g>
    <g>
      <path class="cls-2" d="M122.4,599.2c9.7-.9,10.4-1.6,11.3-11.3,.9,9.7,1.6,10.4,11.3,11.3-9.7,.9-10.4,1.6-11.3,11.3-.9-9.7-1.6-10.4-11.3-11.3Z"/>
      <path class="cls-2" d="M122.4,599.2c9.7-.9,10.4-1.6,11.3-11.3,.9,9.7,1.6,10.4,11.3,11.3-9.7,.9-10.4,1.6-11.3,11.3-.9-9.7-1.6-10.4-11.3-11.3Z"/>
    </g>
    <g>
      <path class="cls-2" d="M187.2,479.4c9.7-.9,10.4-1.6,11.3-11.3,.9,9.7,1.6,10.4,11.3,11.3-9.7,.9-10.4,1.6-11.3,11.3-.9-9.7-1.6-10.4-11.3-11.3Z"/>
      <path class="cls-2" d="M187.2,479.4c9.7-.9,10.4-1.6,11.3-11.3,.9,9.7,1.6,10.4,11.3,11.3-9.7,.9-10.4,1.6-11.3,11.3-.9-9.7-1.6-10.4-11.3-11.3Z"/>
    </g>
    <path class="cls-2" d="M239.1,746.3c8.1-.7,8.7-1.4,9.5-9.5,.7,8.1,1.4,8.7,9.5,9.5-8.1,.7-8.7,1.4-9.5,9.5-.7-8.1-1.4-8.7-9.5-9.5Z"/>
    <path class="cls-2" d="M239.1,746.3c8.1-.7,8.7-1.4,9.5-9.5,.7,8.1,1.4,8.7,9.5,9.5-8.1,.7-8.7,1.4-9.5,9.5-.7-8.1-1.4-8.7-9.5-9.5Z"/>
    <path class="cls-2" d="M627,424.3c-.7-8.1-1.4-8.7-9.5-9.5,8.1-.7,8.7-1.4,9.5-9.5,.7,8.1,1.4,8.7,9.5,9.5-8.1,.7-8.7,1.4-9.5,9.5Z"/>
    <path class="cls-2" d="M627,424.3c-.7-8.1-1.4-8.7-9.5-9.5,8.1-.7,8.7-1.4,9.5-9.5,.7,8.1,1.4,8.7,9.5,9.5-8.1,.7-8.7,1.4-9.5,9.5Z"/>
    <path class="cls-2" d="M516.1,433.3c-.7-8.1-1.4-8.7-9.5-9.5,8.1-.7,8.7-1.4,9.5-9.5,.7,8.1,1.4,8.7,9.5,9.5-8.1,.7-8.7,1.4-9.5,9.5Z"/>
    <path class="cls-2" d="M516.1,433.3c-.7-8.1-1.4-8.7-9.5-9.5,8.1-.7,8.7-1.4,9.5-9.5,.7,8.1,1.4,8.7,9.5,9.5-8.1,.7-8.7,1.4-9.5,9.5Z"/>
    <g>
      <path class="cls-2" d="M766,253.7c-6.3-5.2-7.1-5.2-13.4,0,5.2-6.3,5.2-7.1,0-13.4,6.3,5.2,7.1,5.2,13.4,0-5.2,6.3-5.2,7.1,0,13.4Z"/>
      <path class="cls-2" d="M766,253.7c-6.3-5.2-7.1-5.2-13.4,0,5.2-6.3,5.2-7.1,0-13.4,6.3,5.2,7.1,5.2,13.4,0-5.2,6.3-5.2,7.1,0,13.4Z"/>
    </g>
    <g>
      <path class="cls-2" d="M772.1,349.6c-9.7,.9-10.4,1.6-11.3,11.3-.9-9.7-1.6-10.4-11.3-11.3,9.7-.9,10.4-1.6,11.3-11.3,.9,9.7,1.6,10.4,11.3,11.3Z"/>
      <path class="cls-2" d="M772.1,349.6c-9.7,.9-10.4,1.6-11.3,11.3-.9-9.7-1.6-10.4-11.3-11.3,9.7-.9,10.4-1.6,11.3-11.3,.9,9.7,1.6,10.4,11.3,11.3Z"/>
    </g>
    <path class="cls-2" d="M711.4,400.8c-.9-9.7-1.6-10.4-11.3-11.3,9.7-.9,10.4-1.6,11.3-11.3,.9,9.7,1.6,10.4,11.3,11.3-9.7,.9-10.4,1.6-11.3,11.3Z"/>
    <g>
      <path class="cls-2" d="M540.1,219c8.1-.7,8.7-1.4,9.5-9.5,.7,8.1,1.4,8.7,9.5,9.5-8.1,.7-8.7,1.4-9.5,9.5-.7-8.1-1.4-8.7-9.5-9.5Z"/>
      <path class="cls-2" d="M540.1,219c8.1-.7,8.7-1.4,9.5-9.5,.7,8.1,1.4,8.7,9.5,9.5-8.1,.7-8.7,1.4-9.5,9.5-.7-8.1-1.4-8.7-9.5-9.5Z"/>
    </g>
    <g>
      <path class="cls-2" d="M638.7,239.2c4.4-1,5.2-1.8,6.2-6.2,1,4.4,1.8,5.2,6.2,6.2-4.4,1-5.2,1.8-6.2,6.2-1-4.4-1.8-5.2-6.2-6.2Z"/>
      <path class="cls-2" d="M638.7,239.2c4.4-1,5.2-1.8,6.2-6.2,1,4.4,1.8,5.2,6.2,6.2-4.4,1-5.2,1.8-6.2,6.2-1-4.4-1.8-5.2-6.2-6.2Z"/>
    </g>
    <g>
      <path class="cls-2" d="M719.4,319.9c4.4-1,5.2-1.8,6.2-6.2,1,4.4,1.8,5.2,6.2,6.2-4.4,1-5.2,1.8-6.2,6.2-1-4.4-1.8-5.2-6.2-6.2Z"/>
      <path class="cls-2" d="M719.4,319.9c4.4-1,5.2-1.8,6.2-6.2,1,4.4,1.8,5.2,6.2,6.2-4.4,1-5.2,1.8-6.2,6.2-1-4.4-1.8-5.2-6.2-6.2Z"/>
    </g>
    <g>
      <path class="cls-2" d="M596.9,294.8c4.4-1,5.2-1.8,6.2-6.2,1,4.4,1.8,5.2,6.2,6.2-4.4,1-5.2,1.8-6.2,6.2-1-4.4-1.8-5.2-6.2-6.2Z"/>
      <path class="cls-2" d="M596.9,294.8c4.4-1,5.2-1.8,6.2-6.2,1,4.4,1.8,5.2,6.2,6.2-4.4,1-5.2,1.8-6.2,6.2-1-4.4-1.8-5.2-6.2-6.2Z"/>
    </g>
    <g>
      <path class="cls-2" d="M639.3,349.8c4.4-1,5.2-1.8,6.2-6.2,1,4.4,1.8,5.2,6.2,6.2-4.4,1-5.2,1.8-6.2,6.2-1-4.4-1.8-5.2-6.2-6.2Z"/>
      <path class="cls-2" d="M639.3,349.8c4.4-1,5.2-1.8,6.2-6.2,1,4.4,1.8,5.2,6.2,6.2-4.4,1-5.2,1.8-6.2,6.2-1-4.4-1.8-5.2-6.2-6.2Z"/>
    </g>
    <path class="cls-2" d="M707.3,209c8.1-.7,8.7-1.4,9.5-9.5,.7,8.1,1.4,8.7,9.5,9.5-8.1,.7-8.7,1.4-9.5,9.5-.7-8.1-1.4-8.7-9.5-9.5Z"/>
    <path class="cls-2" d="M707.3,209c8.1-.7,8.7-1.4,9.5-9.5,.7,8.1,1.4,8.7,9.5,9.5-8.1,.7-8.7,1.4-9.5,9.5-.7-8.1-1.4-8.7-9.5-9.5Z"/>
    <g>
      <path class="cls-2" d="M506.5,339.2c4.4-1,5.2-1.8,6.2-6.2,1,4.4,1.8,5.2,6.2,6.2-4.4,1-5.2,1.8-6.2,6.2-1-4.4-1.8-5.2-6.2-6.2Z"/>
      <path class="cls-2" d="M506.5,339.2c4.4-1,5.2-1.8,6.2-6.2,1,4.4,1.8,5.2,6.2,6.2-4.4,1-5.2,1.8-6.2,6.2-1-4.4-1.8-5.2-6.2-6.2Z"/>
    </g>
    <path class="cls-2" d="M475.5,367c8.1-.7,8.7-1.4,9.5-9.5,.7,8.1,1.4,8.7,9.5,9.5-8.1,.7-8.7,1.4-9.5,9.5-.7-8.1-1.4-8.7-9.5-9.5Z"/>
    <path class="cls-2" d="M475.5,367c8.1-.7,8.7-1.4,9.5-9.5,.7,8.1,1.4,8.7,9.5,9.5-8.1,.7-8.7,1.4-9.5,9.5-.7-8.1-1.4-8.7-9.5-9.5Z"/>
    <g>
      <path class="cls-2" d="M161.8,824.2c4.4-1,5.2-1.8,6.2-6.2,1,4.4,1.8,5.2,6.2,6.2-4.4,1-5.2,1.8-6.2,6.2-1-4.4-1.8-5.2-6.2-6.2Z"/>
      <path class="cls-2" d="M161.8,824.2c4.4-1,5.2-1.8,6.2-6.2,1,4.4,1.8,5.2,6.2,6.2-4.4,1-5.2,1.8-6.2,6.2-1-4.4-1.8-5.2-6.2-6.2Z"/>
    </g>
    <g>
      <path class="cls-2" d="M221.3,828.4c4.4-1,5.2-1.8,6.2-6.2,1,4.4,1.8,5.2,6.2,6.2-4.4,1-5.2,1.8-6.2,6.2-1-4.4-1.8-5.2-6.2-6.2Z"/>
      <path class="cls-2" d="M221.3,828.4c4.4-1,5.2-1.8,6.2-6.2,1,4.4,1.8,5.2,6.2,6.2-4.4,1-5.2,1.8-6.2,6.2-1-4.4-1.8-5.2-6.2-6.2Z"/>
    </g>
    <g>
      <path class="cls-2" d="M.1,605c4.4-1,5.2-1.8,6.2-6.2,1,4.4,1.8,5.2,6.2,6.2-4.4,1-5.2,1.8-6.2,6.2-1-4.4-1.8-5.2-6.2-6.2Z"/>
      <path class="cls-2" d="M.1,605c4.4-1,5.2-1.8,6.2-6.2,1,4.4,1.8,5.2,6.2,6.2-4.4,1-5.2,1.8-6.2,6.2-1-4.4-1.8-5.2-6.2-6.2Z"/>
    </g>
    <g>
      <path class="cls-2" d="M72.3,714.7c4.4-1,5.2-1.8,6.2-6.2,1,4.4,1.8,5.2,6.2,6.2-4.4,1-5.2,1.8-6.2,6.2-1-4.4-1.8-5.2-6.2-6.2Z"/>
      <path class="cls-2" d="M72.3,714.7c4.4-1,5.2-1.8,6.2-6.2,1,4.4,1.8,5.2,6.2,6.2-4.4,1-5.2,1.8-6.2,6.2-1-4.4-1.8-5.2-6.2-6.2Z"/>
    </g>
    <g>
      <path class="cls-2" d="M156.1,656.6c4.4-1,5.2-1.8,6.2-6.2,1,4.4,1.8,5.2,6.2,6.2-4.4,1-5.2,1.8-6.2,6.2-1-4.4-1.8-5.2-6.2-6.2Z"/>
      <path class="cls-2" d="M156.1,656.6c4.4-1,5.2-1.8,6.2-6.2,1,4.4,1.8,5.2,6.2,6.2-4.4,1-5.2,1.8-6.2,6.2-1-4.4-1.8-5.2-6.2-6.2Z"/>
    </g>
    <g>
      <path class="cls-2" d="M149.8,534.1c4.4-1,5.2-1.8,6.2-6.2,1,4.4,1.8,5.2,6.2,6.2-4.4,1-5.2,1.8-6.2,6.2-1-4.4-1.8-5.2-6.2-6.2Z"/>
      <path class="cls-2" d="M149.8,534.1c4.4-1,5.2-1.8,6.2-6.2,1,4.4,1.8,5.2,6.2,6.2-4.4,1-5.2,1.8-6.2,6.2-1-4.4-1.8-5.2-6.2-6.2Z"/>
    </g>
    <g>
      <path class="cls-2" d="M9.8,868c4.4-1,5.2-1.8,6.2-6.2,1,4.4,1.8,5.2,6.2,6.2-4.4,1-5.2,1.8-6.2,6.2-1-4.4-1.8-5.2-6.2-6.2Z"/>
      <path class="cls-2" d="M9.8,868c4.4-1,5.2-1.8,6.2-6.2,1,4.4,1.8,5.2,6.2,6.2-4.4,1-5.2,1.8-6.2,6.2-1-4.4-1.8-5.2-6.2-6.2Z"/>
    </g>
    <g>
      <path class="cls-2" d="M20.7,573.2c3.8,2.4,5,2.4,8.8,0-2.4,3.8-2.4,5,0,8.8-3.8-2.4-5-2.4-8.8,0,2.4-3.8,2.4-5,0-8.8Z"/>
      <path class="cls-2" d="M20.7,573.2c3.8,2.4,5,2.4,8.8,0-2.4,3.8-2.4,5,0,8.8-3.8-2.4-5-2.4-8.8,0,2.4-3.8,2.4-5,0-8.8Z"/>
    </g>
    <g>
      <path class="cls-2" d="M64.9,836.1c4.4-1,5.2-1.8,6.2-6.2,1,4.4,1.8,5.2,6.2,6.2-4.4,1-5.2,1.8-6.2,6.2-1-4.4-1.8-5.2-6.2-6.2Z"/>
      <path class="cls-2" d="M64.9,836.1c4.4-1,5.2-1.8,6.2-6.2,1,4.4,1.8,5.2,6.2,6.2-4.4,1-5.2,1.8-6.2,6.2-1-4.4-1.8-5.2-6.2-6.2Z"/>
    </g>
    <g>
      <path class="cls-2" d="M57.6,215.1c6.3,5.2,7.1,5.2,13.4,0-5.2,6.3-5.2,7.1,0,13.4-6.3-5.2-7.1-5.2-13.4,0,5.2-6.3,5.2-7.1,0-13.4Z"/>
      <path class="cls-2" d="M57.6,215.1c6.3,5.2,7.1,5.2,13.4,0-5.2,6.3-5.2,7.1,0,13.4-6.3-5.2-7.1-5.2-13.4,0,5.2-6.3,5.2-7.1,0-13.4Z"/>
    </g>
    <g>
      <path class="cls-2" d="M182.5,114.6c8.1-.7,8.7-1.4,9.5-9.5,.7,8.1,1.4,8.7,9.5,9.5-8.1,.7-8.7,1.4-9.5,9.5-.7-8.1-1.4-8.7-9.5-9.5Z"/>
      <path class="cls-2" d="M182.5,114.6c8.1-.7,8.7-1.4,9.5-9.5,.7,8.1,1.4,8.7,9.5,9.5-8.1,.7-8.7,1.4-9.5,9.5-.7-8.1-1.4-8.7-9.5-9.5Z"/>
    </g>
    <g>
      <path class="cls-2" d="M148.5,65.9c8.1-.7,8.7-1.4,9.5-9.5,.7,8.1,1.4,8.7,9.5,9.5-8.1,.7-8.7,1.4-9.5,9.5-.7-8.1-1.4-8.7-9.5-9.5Z"/>
      <path class="cls-2" d="M148.5,65.9c8.1-.7,8.7-1.4,9.5-9.5,.7,8.1,1.4,8.7,9.5,9.5-8.1,.7-8.7,1.4-9.5,9.5-.7-8.1-1.4-8.7-9.5-9.5Z"/>
    </g>
    <g>
      <path class="cls-2" d="M40.6,307.8c8.1-.7,8.7-1.4,9.5-9.5,.7,8.1,1.4,8.7,9.5,9.5-8.1,.7-8.7,1.4-9.5,9.5-.7-8.1-1.4-8.7-9.5-9.5Z"/>
      <path class="cls-2" d="M40.6,307.8c8.1-.7,8.7-1.4,9.5-9.5,.7,8.1,1.4,8.7,9.5,9.5-8.1,.7-8.7,1.4-9.5,9.5-.7-8.1-1.4-8.7-9.5-9.5Z"/>
    </g>
    <g>
      <path class="cls-2" d="M66.2,513c8.1-.7,8.7-1.4,9.5-9.5,.7,8.1,1.4,8.7,9.5,9.5-8.1,.7-8.7,1.4-9.5,9.5-.7-8.1-1.4-8.7-9.5-9.5Z"/>
      <path class="cls-2" d="M66.2,513c8.1-.7,8.7-1.4,9.5-9.5,.7,8.1,1.4,8.7,9.5,9.5-8.1,.7-8.7,1.4-9.5,9.5-.7-8.1-1.4-8.7-9.5-9.5Z"/>
    </g>
    <g>
      <path class="cls-2" d="M25.7,455c6.3,5.2,7.1,5.2,13.4,0-5.2,6.3-5.2,7.1,0,13.4-6.3-5.2-7.1-5.2-13.4,0,5.2-6.3,5.2-7.1,0-13.4Z"/>
      <path class="cls-2" d="M25.7,455c6.3,5.2,7.1,5.2,13.4,0-5.2,6.3-5.2,7.1,0,13.4-6.3-5.2-7.1-5.2-13.4,0,5.2-6.3,5.2-7.1,0-13.4Z"/>
    </g>
    <g>
      <path class="cls-2" d="M119.6,151.8c9.7-.9,10.4-1.6,11.3-11.3,.9,9.7,1.6,10.4,11.3,11.3-9.7,.9-10.4,1.6-11.3,11.3-.9-9.7-1.6-10.4-11.3-11.3Z"/>
      <path class="cls-2" d="M119.6,151.8c9.7-.9,10.4-1.6,11.3-11.3,.9,9.7,1.6,10.4,11.3,11.3-9.7,.9-10.4,1.6-11.3,11.3-.9-9.7-1.6-10.4-11.3-11.3Z"/>
    </g>
    <g>
      <path class="cls-2" d="M0,533.5c9.7-.9,10.4-1.6,11.3-11.3,.9,9.7,1.6,10.4,11.3,11.3-9.7,.9-10.4,1.6-11.3,11.3-.9-9.7-1.6-10.4-11.3-11.3Z"/>
      <path class="cls-2" d="M0,533.5c9.7-.9,10.4-1.6,11.3-11.3,.9,9.7,1.6,10.4,11.3,11.3-9.7,.9-10.4,1.6-11.3,11.3-.9-9.7-1.6-10.4-11.3-11.3Z"/>
    </g>
    <g>
      <path class="cls-2" d="M139.2,328c4.4-1,5.2-1.8,6.2-6.2,1,4.4,1.8,5.2,6.2,6.2-4.4,1-5.2,1.8-6.2,6.2-1-4.4-1.8-5.2-6.2-6.2Z"/>
      <path class="cls-2" d="M139.2,328c4.4-1,5.2-1.8,6.2-6.2,1,4.4,1.8,5.2,6.2,6.2-4.4,1-5.2,1.8-6.2,6.2-1-4.4-1.8-5.2-6.2-6.2Z"/>
    </g>
    <g>
      <path class="cls-2" d="M219.9,408.7c4.4-1,5.2-1.8,6.2-6.2,1,4.4,1.8,5.2,6.2,6.2-4.4,1-5.2,1.8-6.2,6.2-1-4.4-1.8-5.2-6.2-6.2Z"/>
      <path class="cls-2" d="M219.9,408.7c4.4-1,5.2-1.8,6.2-6.2,1,4.4,1.8,5.2,6.2,6.2-4.4,1-5.2,1.8-6.2,6.2-1-4.4-1.8-5.2-6.2-6.2Z"/>
    </g>
    <g>
      <path class="cls-2" d="M97.4,383.6c4.4-1,5.2-1.8,6.2-6.2,1,4.4,1.8,5.2,6.2,6.2-4.4,1-5.2,1.8-6.2,6.2-1-4.4-1.8-5.2-6.2-6.2Z"/>
      <path class="cls-2" d="M97.4,383.6c4.4-1,5.2-1.8,6.2-6.2,1,4.4,1.8,5.2,6.2,6.2-4.4,1-5.2,1.8-6.2,6.2-1-4.4-1.8-5.2-6.2-6.2Z"/>
    </g>
    <g>
      <path class="cls-2" d="M139.8,438.6c4.4-1,5.2-1.8,6.2-6.2,1,4.4,1.8,5.2,6.2,6.2-4.4,1-5.2,1.8-6.2,6.2-1-4.4-1.8-5.2-6.2-6.2Z"/>
      <path class="cls-2" d="M139.8,438.6c4.4-1,5.2-1.8,6.2-6.2,1,4.4,1.8,5.2,6.2,6.2-4.4,1-5.2,1.8-6.2,6.2-1-4.4-1.8-5.2-6.2-6.2Z"/>
    </g>
    <g>
      <path class="cls-2" d="M211,297.8c4.4-1,5.2-1.8,6.2-6.2,1,4.4,1.8,5.2,6.2,6.2-4.4,1-5.2,1.8-6.2,6.2-1-4.4-1.8-5.2-6.2-6.2Z"/>
      <path class="cls-2" d="M211,297.8c4.4-1,5.2-1.8,6.2-6.2,1,4.4,1.8,5.2,6.2,6.2-4.4,1-5.2,1.8-6.2,6.2-1-4.4-1.8-5.2-6.2-6.2Z"/>
    </g>
    <g>
      <path class="cls-2" d="M171.6,247.1c4.4-1,5.2-1.8,6.2-6.2,1,4.4,1.8,5.2,6.2,6.2-4.4,1-5.2,1.8-6.2,6.2-1-4.4-1.8-5.2-6.2-6.2Z"/>
      <path class="cls-2" d="M171.6,247.1c4.4-1,5.2-1.8,6.2-6.2,1,4.4,1.8,5.2,6.2,6.2-4.4,1-5.2,1.8-6.2,6.2-1-4.4-1.8-5.2-6.2-6.2Z"/>
    </g>
    <g>
      <path class="cls-2" d="M103.6,87.8c4.4-1,5.2-1.8,6.2-6.2,1,4.4,1.8,5.2,6.2,6.2-4.4,1-5.2,1.8-6.2,6.2-1-4.4-1.8-5.2-6.2-6.2Z"/>
      <path class="cls-2" d="M103.6,87.8c4.4-1,5.2-1.8,6.2-6.2,1,4.4,1.8,5.2,6.2,6.2-4.4,1-5.2,1.8-6.2,6.2-1-4.4-1.8-5.2-6.2-6.2Z"/>
    </g>
    <g>
      <path class="cls-2" d="M187.4,29.7c4.4-1,5.2-1.8,6.2-6.2,1,4.4,1.8,5.2,6.2,6.2-4.4,1-5.2,1.8-6.2,6.2-1-4.4-1.8-5.2-6.2-6.2Z"/>
      <path class="cls-2" d="M187.4,29.7c4.4-1,5.2-1.8,6.2-6.2,1,4.4,1.8,5.2,6.2,6.2-4.4,1-5.2,1.8-6.2,6.2-1-4.4-1.8-5.2-6.2-6.2Z"/>
    </g>
    <g>
      <path class="cls-2" d="M6.9,428c4.4-1,5.2-1.8,6.2-6.2,1,4.4,1.8,5.2,6.2,6.2-4.4,1-5.2,1.8-6.2,6.2-1-4.4-1.8-5.2-6.2-6.2Z"/>
      <path class="cls-2" d="M6.9,428c4.4-1,5.2-1.8,6.2-6.2,1,4.4,1.8,5.2,6.2,6.2-4.4,1-5.2,1.8-6.2,6.2-1-4.4-1.8-5.2-6.2-6.2Z"/>
    </g>
    <g>
      <path class="cls-2" d="M96.4,236.8c4.4-1,5.2-1.8,6.2-6.2,1,4.4,1.8,5.2,6.2,6.2-4.4,1-5.2,1.8-6.2,6.2-1-4.4-1.8-5.2-6.2-6.2Z"/>
      <path class="cls-2" d="M96.4,236.8c4.4-1,5.2-1.8,6.2-6.2,1,4.4,1.8,5.2,6.2,6.2-4.4,1-5.2,1.8-6.2,6.2-1-4.4-1.8-5.2-6.2-6.2Z"/>
    </g>
    <g>
      <path class="cls-2" d="M17.9,125.8c3.8,2.4,5,2.4,8.8,0-2.4,3.8-2.4,5,0,8.8-3.8-2.4-5-2.4-8.8,0,2.4-3.8,2.4-5,0-8.8Z"/>
      <path class="cls-2" d="M17.9,125.8c3.8,2.4,5,2.4,8.8,0-2.4,3.8-2.4,5,0,8.8-3.8-2.4-5-2.4-8.8,0,2.4-3.8,2.4-5,0-8.8Z"/>
    </g>
    <g>
      <path class="cls-2" d="M96.2,209.2c4.4-1,5.2-1.8,6.2-6.2,1,4.4,1.8,5.2,6.2,6.2-4.4,1-5.2,1.8-6.2,6.2-1-4.4-1.8-5.2-6.2-6.2Z"/>
      <path class="cls-2" d="M96.2,209.2c4.4-1,5.2-1.8,6.2-6.2,1,4.4,1.8,5.2,6.2,6.2-4.4,1-5.2,1.8-6.2,6.2-1-4.4-1.8-5.2-6.2-6.2Z"/>
    </g>
    <path class="cls-2" d="M262,22c.7,8.1,1.4,8.7,9.5,9.5-8.1,.7-8.7,1.4-9.5,9.5-.7-8.1-1.4-8.7-9.5-9.5,8.1-.7,8.7-1.4,9.5-9.5Z"/>
    <path class="cls-2" d="M262,22c.7,8.1,1.4,8.7,9.5,9.5-8.1,.7-8.7,1.4-9.5,9.5-.7-8.1-1.4-8.7-9.5-9.5,8.1-.7,8.7-1.4,9.5-9.5Z"/>
    <g>
      <path class="cls-2" d="M236.4,868.6c-4.4,1-5.2,1.8-6.2,6.2-1-4.4-1.8-5.2-6.2-6.2,4.4-1,5.2-1.8,6.2-6.2,1,4.4,1.8,5.2,6.2,6.2Z"/>
      <path class="cls-2" d="M236.4,868.6c-4.4,1-5.2,1.8-6.2,6.2-1-4.4-1.8-5.2-6.2-6.2,4.4-1,5.2-1.8,6.2-6.2,1,4.4,1.8,5.2,6.2,6.2Z"/>
    </g>
    <g>
      <path class="cls-2" d="M1006.6,45.4c4.4-1,5.2-1.8,6.2-6.2,1,4.4,1.8,5.2,6.2,6.2-4.4,1-5.2,1.8-6.2,6.2-1-4.4-1.8-5.2-6.2-6.2Z"/>
      <path class="cls-2" d="M1006.6,45.4c4.4-1,5.2-1.8,6.2-6.2,1,4.4,1.8,5.2,6.2,6.2-4.4,1-5.2,1.8-6.2,6.2-1-4.4-1.8-5.2-6.2-6.2Z"/>
    </g>
    <g>
      <path class="cls-2" d="M873.8,34.8c4.4-1,5.2-1.8,6.2-6.2,1,4.4,1.8,5.2,6.2,6.2-4.4,1-5.2,1.8-6.2,6.2-1-4.4-1.8-5.2-6.2-6.2Z"/>
      <path class="cls-2" d="M873.8,34.8c4.4-1,5.2-1.8,6.2-6.2,1,4.4,1.8,5.2,6.2,6.2-4.4,1-5.2,1.8-6.2,6.2-1-4.4-1.8-5.2-6.2-6.2Z"/>
    </g>
  </g>
</svg>